/* XPM */
static char *door[] = {
/* columns rows colors chars-per-pixel */
"64 64 193 2 ",
"   c #2F2A24",
".  c #332D26",
"X  c #342E28",
"o  c #363029",
"O  c #3B352D",
"+  c #3D382F",
"@  c #3C3730",
"#  c #3E3932",
"$  c #3F3D38",
"%  c #41382F",
"&  c #423C34",
"*  c #483F36",
"=  c #433F39",
"-  c #3E4228",
";  c #41452E",
":  c #434A2D",
">  c #4C5E25",
",  c #49552D",
"<  c #4C5C2D",
"1  c #46522C",
"2  c #434632",
"3  c #494036",
"4  c #464C33",
"5  c #494E35",
"6  c #45423B",
"7  c #49443C",
"8  c #474A39",
"9  c #4B4C3C",
"0  c #52493F",
"q  c #475030",
"w  c #4B5434",
"e  c #4E5A33",
"r  c #4D533B",
"t  c #4E5A3B",
"y  c #505636",
"u  c #515D35",
"i  c #51553E",
"p  c #525C3C",
"a  c #595C3F",
"s  c #4E6327",
"d  c #4F622B",
"f  c #526825",
"g  c #51652C",
"h  c #556C2C",
"j  c #5A6C2E",
"k  c #57712B",
"l  c #5A742D",
"z  c #5D7B2E",
"x  c #4F6031",
"c  c #546434",
"v  c #566A33",
"b  c #596D34",
"n  c #54633A",
"m  c #59643C",
"M  c #56693B",
"N  c #5A6C3C",
"B  c #577032",
"V  c #5C7434",
"C  c #5E7A33",
"Z  c #5D733A",
"A  c #5E7939",
"S  c #607633",
"D  c #627B35",
"F  c #617539",
"G  c #627B3A",
"H  c #464541",
"J  c #4A4741",
"K  c #4D4B44",
"L  c #4E4D49",
"P  c #514D45",
"I  c #504E49",
"U  c #4E5242",
"Y  c #4F504A",
"T  c #525445",
"R  c #595447",
"E  c #535B44",
"W  c #585E44",
"Q  c #53534B",
"!  c #59564D",
"~  c #555B4B",
"^  c #5A5C4D",
"/  c #4D5254",
"(  c #4F575A",
")  c #545552",
"_  c #585751",
"`  c #575A53",
"'  c #5A5B54",
"]  c #50575B",
"[  c #555A5A",
"{  c #5B5D5A",
"}  c #605E4F",
"|  c #615E55",
" . c #556244",
".. c #596444",
"X. c #576840",
"o. c #5A6C44",
"O. c #57624A",
"+. c #5B634C",
"@. c #5B6B4C",
"#. c #5D7044",
"$. c #5E714C",
"%. c #5C6354",
"&. c #5D6A53",
"*. c #5D625C",
"=. c #5E695A",
"-. c #616C44",
";. c #61644B",
":. c #616A4B",
">. c #617441",
",. c #60724C",
"<. c #69774C",
"1. c #697D48",
"2. c #637845",
"3. c #616554",
"4. c #636C55",
"5. c #61655D",
"6. c #626C5D",
"7. c #637253",
"8. c #687353",
"9. c #687B56",
"0. c #64725C",
"q. c #69765C",
"w. c #6B7A5E",
"e. c #555E62",
"r. c #5A5F61",
"t. c #576165",
"y. c #5D6363",
"u. c #5F6860",
"i. c #5B6669",
"p. c #5E696C",
"a. c #5E6B72",
"s. c #616664",
"d. c #636A64",
"f. c #686C62",
"g. c #606768",
"h. c #646C6C",
"j. c #696F6D",
"k. c #667264",
"l. c #697464",
"z. c #6C7966",
"x. c #67706B",
"c. c #6A746C",
"v. c #6B796C",
"b. c #707F66",
"n. c #656E71",
"m. c #686F71",
"M. c #677174",
"N. c #697275",
"B. c #6D7A75",
"V. c #65737A",
"C. c #6B757A",
"Z. c #6D797D",
"A. c #717A73",
"S. c #707678",
"D. c #717B7D",
"F. c #63842F",
"G. c #648433",
"H. c #688632",
"J. c #6A8B35",
"K. c #65823A",
"L. c #69863B",
"P. c #6C8C3C",
"I. c #6D9037",
"U. c #6D903C",
"Y. c #709237",
"T. c #71933B",
"R. c #698443",
"E. c #6D8A43",
"W. c #6A8146",
"Q. c #708C44",
"!. c #749444",
"~. c #75944A",
"^. c #6F8852",
"/. c #7EA345",
"(. c #768177",
"). c #7A8778",
"_. c #6E7C82",
"`. c #6F7F89",
"'. c #717D83",
"]. c #717F88",
"[. c #6F8084",
"{. c #738185",
"}. c #798383",
"|. c #74828A",
" X c #79868B",
".X c #7D898D",
"XX c #778690",
"oX c #798790",
"OX c #7B8991",
"+X c #818B8D",
"@X c #818D92",
"#X c #859196",
"$X c #84939B",
/* pixels */
"J.z G.h h s A Y.l c m u b >.4.| 0 I r.r.g.j.g.h.m.m.m.m.d.d.h.C.C.C.N.n.h.h.M.h.6 ` ).}.{.{.[.{.{._.B.Z.B.l.l.6.6.4.3.d.d.5.5.| ",
"F.k z k h G.g H.x V u p y  .4.| I ) r.s.g.m.m.m.h.m.m.j.x.j.M.N.C.C.C.n.g.s.h.g.6 T b.w.7.0.v.B._.B.l.k.6.%.%.O.^ r p +.3.5.*.| ",
"f f z s h C S H., c E a ..%.c.R 0 I r.g.g.g.m.j.m.m.m.j.h.j.S.'.Z.C.N.M.g.s.s.d.8 9 z.,.N o.4.v.B.v.6.+.t e c y 9 4 c n T ^ ! ! ",
"F.h h f v V E.Y.j u E +.6.f.N.P * P r.g.g.j.j.m.m.S.S.j.j.m.D.].{.'.N.h.h.s.s.%.8 5 w.-.F Z N 4.k.h.%.r e v C C , G K.E.!.o.! 4.",
"H.z C h h V D U.J.a E 5.c.A.S.R * 0 r.r.g.m.m.m.S.S.S.A.A.S.S.D.D.D.N.h.d.g.s.^ 9 9 q.N v v c e E ~ ~ 2 1 s C C g L.I.D G E.;.} ",
"g c x c h C l V D -.T T P R _ * % % * J 3 * 3 * * * 7 K 0 P P K J J K J 7 8 3 8 8 8 2 : 1 w v K.g 4 2 2 : < G.k S !.D c q u :.R ",
", : , < c C C v G a ' *.r.{ r.r.r.r.r.r.m.m._.m.C.C.m.s.* * { s.s.s.g.g.g.g.s.{ *.t.%.E t t M C m W W E : < C L.V u w 2 - p W R ",
"q u 5 < v V C c u u ' h.n.m.m.N.m._.'._._.'.'.].@X].].'.% 3 N.'.n.n._.|.OXoX].'._.[._.c.0.&.o.Z Z o.7.v.r 4 e M F q w 4 4 w i ^ ",
"w e 4 c F c F p w -.%.h.h.n.n.n.n.n._._._.m._.m._..X|.|.O 6 j. X'._.C._._.].].].oX].].D.v.k...N X...3.k.E 8 q p y T t r r 4 w t ",
"r t w n u c p W T ^ { h.n.n.n.n.n.n.n.n.n._._.n.N.Z.|.|.O & g.D.N.n.n.C.C._.'.'.'.'.'.S.v.4.M n c n X.&.T 4 e X.3.6.O.E t w w q ",
"U r i 9 p E W 9 ` s.s.h.h.n.M.M.n._.n.N.n.n._.g.C.C.Z. X% @ h.C.M.m.C.n.N.N.N.C.Z.S.N.N.k.O.e x V b c ..r 5 e  .6.x.0. . .t e v ",
"%.*.5.' i 9 r -.+.{ s.g.h.n.n.M.n.n._.N.n._.n._.C.C.C. X= O | N.M.N.n.m.N.N.N.m.M.N.C.N.d.t x K.K.G m p r w y  .&.d.d.@.n v e d ",
"d.6.s.6.7 9 E :.W ~ %.s.h.n.n.n.N.V.V.N.M.M.N.C.C.C.C.].J & ' N.n.m.m.m.n.n.n.n.j.M.M.x.d.y c B c v M p r w u ..O.%.%.@.X.M v A ",
"M.x.x.l.T T %.^ T ~ 3.s.h.h.n.n.N.N.C.N.C.C.C.C.C.C.C.].7 @ ) M.h.n.m.m.m.n.n.m.h.h.h.h.*.T t w e e w y 9 9 9 z.&.O. .o.0.@.v h ",
"M.h.d.z.~ ! ;.Q ) Q ' y.s.h.n.m.M.N.M.C.C.C.C.C.C.C.N. XK O Q h.g.g.h.m.h.h.h.h.d.g.s.s.%.T r w e c w m i i U B.0.o.X.#.7.$.N g ",
"D.B.B.).T T Q %.' _ ' { 5.s.h.h.m.M.M.M.N.C.C.S.C.C.'.@XI % I *.r.*.*.*.y.*.*.y.s.*.{ { ! T 9 q N P.G n w E r v.z.$.o.o.@.#.#.B ",
"f.f.f.l.R 7 K @.} ! I Q _ _ _ | { { ' | { { _ { { { *.s.P * 6 K L P I I I I I I Q K K J H 8 U - v E.D c w r 9 ~ r w M c , < , v ",
"7 8 9 8 8 5 p >.W ^ P P R & & % @ % J 6 = = = * & & & & = 0 & @ o % & o O o O o O O @ H H L Y U 5 , , u w t r r 8 8 2 : u c c , ",
"9 8 5 4 n Z L.D p 3.%.3.! I K 7 @ = '.C.N.N.n.n.M.M.n.n.h.h.r.s.h.s.y.{ _ _ Q L 6 X L {.XXOXXX|.(.k.q.,.$.0.v.(.v.7...n u p w w ",
"w w 4 < c Q.T.H.m E 3.3.' _ _ I & = S.N.N.N.N.C.M.M.M.M.M.n.t.p.p.h.h.g.s.5.| ` P o L  XOXXX|._.(.(.D.q.7.v.(.[.B.k.@.n n p y 5 ",
"w c < v b K.K.G.S m ;.*.y.*.{ ! & 7 N.N.V.V.N.N.M.M.M.M.n.n.i.e.t.t.i.h.h.s.s.{ ! o K D.$X|.`.`.(.[.(.0.0.(.[.[.Z.0.+.&.+.+.E r ",
"E e 1 C V g R.!.T.L.:.*.g.s.s.*.7 7 N.C.N.N.N.V.V.M.M.M.p.t.e.e.i.i.p.h.M.h.g.d.| o J C.$XoX|.|.[.[.[.V.0.V._.[._.V.t.x.c.6.+.T ",
"O.t w , g v A Q./.D +.g.h.h.g.s.3 6 j.C.n.C.N.V.N.M.M.a.p.i.i.i.i.i.i.M.C.N.n.h.s.% 7 j.$X].].]._._._._.[.[.[.[._.C.M.V.B.d.+.E ",
" .n t < g h v C l  .%.g.h.n.n.h.6 & h.S.N.C.C.V.V.M.C.n.n.a.i.i.t.i.t.M.C.C.N.h.j.& & h.OX'._.Z._._._._.[.V.Z.Z._.B.C.Z.N.d.%.! ",
"@.$.&.X.v k > < t %.=.h.n.n.M.n.P 7 s.D.N.C.Z._.C.V.V.C.n.V.V.p.n.t.p.V.C.Z.C.M.n.J & s.@X'.'.Z.Z._._.Z.Z.C.C.M.n.M.x.x.j.6.^ ' ",
"&.=.=.o.Z C G.V  .d.x.M.N.n.M.N.R 7 5..X{.|.]._._.C.C.C.C.C._.V.a.p.n.B.C._.Z.V.n.P o s.@X_.D.D.Z.Z.Z.S.C.C.B.C.M.h.d.d.6.' T T ",
" . .O.X.B G.k s n k.B.Z.D.C.Z.D.! & ' $X.X XOX X]._.V._. X XoX|._.C.C.{.M.'.'.Z.S.{ O { @X_.C.c.C.N.N.N.M.N.N.M.x.h.s.5.~ Q T r ",
"x v B c A T.l s c <.(. X}. X.X+X' & _ #X+X X@X@X+X+X+X'.+X$X#X#X#X#X#XOX@X@X+X.X@Xj.o _ +XS.N.6.j.j.h.h.h.j.h.x.s.d.5.~ ~ Q r w ",
"C w w : R.J.> z V c W R P T P Q 7 & J P 0 P P P I P P P _ _ _ _ Q Q Q I Q _ Q Q Q P O J K J 9 9 T 0 7 7 7 P K J Q ! T K T U t n ",
"v t 4 ; G D < c r E 3.{ ) ) ) [ ) [ { [ { { [ ) L L L I I & o & I ) _ I ) ) ) ) [ { { *.s.f.g.s.5.s.*.s.y.s.Q ! ` Q ` Q ` Q E r ",
"e w 2 5 u y 4 %.g.n.n.M.n.n.n.n.C.Z.Z.Z.C.'._._._.Z.V.n.C.& o [ C.m.n.C.C.C.C.C.C.C.C.Z.S.c.D.C.v.A.|.|.'.}.Q K P P Q L Y Q U U ",
"5 r E ..;.9 Q m.n.h.h.n.n.n.n.n.n.C.C.C.N.C._.].].`._._.S.% @ ' n.j.m.n.n.n.n.m.n.m.N.C.B.f.C.C.C.C.S.].'.].J = 7 L Q Q ) ~ Y r ",
"y m ! R R * Q m.n.n.h.n.n.n.n.n.n.M.M.M.N.N.V.C._._.].].oX# % [ m.n.j.j.n.j.M.h.m.M.N.C.N.N.C.C.C.C.Z._.'.{.I @ = I ) ) ` Q ~ r ",
"-.1.8.| J * I m.h.h.n.n.n.n.C.n.n.N.C.M.N.C.C.N.M.C.C._.oX% o ) m.h.n.j.h.d.d.5.j.n.N.C.C.N.C.C.C.N.C.C._.{.) @ 7 I ) Q Q E U r ",
"p <.5.| * * L m.h.h.n.h.n.n.m.n.n.M.C.M.M.V.V.C.C.N.m.C.'.& O I h.j.j.h.d.&.*.d.h.n.N.C.C.C.C.N.C.C.S.C.Z.'.{ @ = I U r p T T r ",
"W +.| | % % K h.g.g.h.h.m.m.n.n.n.M.V.N.N.N.N.C.C.C.C.C.'.= o J g.g.h.j.*.%.*.d.m.n.C.N.N.C.S.C.C.C.C.C.C.C.y.6 H K r W.G n r 4 ",
"3.*.' | % O 7 r.y.y.s.g.j.h.j.h.n.m.m.m.N.C.N.N.C.M.C.C._.7 O = r.y.g.g.s.d.=.h.m.n.N.C.N.C.C.C.C.C.N.C.C.C.d.7 T 9 m G c c N r ",
"*.` I R % @ = _ { { { s.g.g.h.g.n.n.m.m.C.n.n.n.M.N.C.C.S.J O & { { | { y.s.h.g.h.m.n.n.N.N.N.N.S.N.N.j.c.x.%.8 r 9 q b F 4 y p ",
"_ I I I o @ & I ) ) _ [ { y.s.g.h.m.n.m.n.C.m.n.C.m.C.m.N.J o # ) ) [ { { 5.s.s.h.h.j.h.m.M.M.m.N.m.j.d.*.d.+.t N c c : b 4 w i ",
"I J J 7 o . # J J I I I ) ) { { s.g.s.g.j.m.m.m.m.C.S.C._.H X @ I I ) ) _ { { y.s.h.h.j.h.h.h.h.d.s.*.T r T U w e Z m < m w m T ",
"X .   .     . @ O O O O @ @ @ @ % % = I R K * & % & & % # . . o @ $ = L J * = & * & & & = 7 L K J U K r r Z M - 2 c 1 - : u w i ",
"e.] / / ( e.a.V.V.V.n.n.n.h.g.g.m.s.= I L _ * % # # $ # $ $ = = 6 H 6 J J L L J J H $ % 7 L Q ) ) ) ) Q e E.A T U t t t E %.M.n.",
"p.e.] e.t.a.V._._.`._._.C.C.C.V.C.j.= I _ _ { [ { { r.y.r.y.g.g.g.h.g.n.g.g.g.g.g.g.) & Q { t.y.u.g.y.~ w Z B O.%.+.&.&.%.d.Z.M.",
"V.i.a.n._._._._._._.]._.C._._.C.'.j.* I r.r.y.s.s.g.g.g.n.h.n.h.n.n.g.n.n.g.n.g.n.n.r.= Q ' { *.*.y.` Q r q w E  .O.=.p.d.6.v.M.",
"a._._._.a._._._._._.'.'._._.'._.'.g.= I s.g.h.m.S.M.n.m.n.n.n.n.n.n.n.n.n.a.n.n.n.n.g.J _ { ' %.` r t t q e q t t O.&.=.=.d.x.B.",
"_._._._.`._._.`._._._._.'.S.D._.'.s.% J g.j.n._.C.j.g.h.g.n.n.n.n.n.n.n.n.n.n.g.n.n.m.0 _ | ' ' ~ r c C x A , < c n  .O.=.=.&.M.",
"V.V._._._._._._._.C.D._.S.C.D._.D.s.= J m.h.C.C.m.n.h.g.i.n.M.C.n.n.n.n.n.n.n._._._.'.J I [ | ' T w M L.g V h g G.g E +.s.=.=.M.",
"V.V.V.a.V.V._._._.D.D._.C.C.C.S.m.s.= K n.n.C.h.s.g.n.h.g.g.C.N.V.M.V.C.N.N._.`.].].|.0 I _ { ' T n n A V B K.P.F.B t =.x.=.6.x.",
"M.M.V.M.M.M.M.M.N.C.C.C.C.N.N.B.N.s.= P D.C.x.5.{ { s.g.g.n.N.C._._.N._.'.]. XoX|.'.'.K I ) _ ` ~ t t x c v v B J.C t *.d.=.d.N.",
"n.n.h.h.h.h.h.n.M.h.x.h.h.M.h.h.n.| & J  XM.d.{ ' ) { y.s.g.n.C.S.V.n.n.C.N.C.Z.C.N.D.7 6 Q ' ' ` T r t n B x x G b p %.k.x.M.C.",
"s.s.s.5.*.4.5.s.s.h.s.s.s.y.y.y.{ _ @ H D.h.5.' ' ` _ { *.y.g.n.C._.n.n.n.g.g.n.Z.C._.6 & Q _ [ [ ~ U r M v e M c t %.g.M.V.V.M.",
"*.{ { ~ ^ ' ' %.*.*.*.{ ) L ' _ _ P @ 7 S.d.~ %.%.' { [ { y.h.S.'.].'.Z.D.N.h.m.S.].@X7 & I ) [ ' ( T t n p M m E *.h.N.C.N.C.Z.",
"9 K 7 U U Q ^ ' R T Q R 7 # J J 7 & @ & H 9 / ~ 5.^ R 7 7 7 J P P I I R Q K K K P I Q & # 7 7 7 H K T r t n t X.;.;.' _ ' ' ' { ",
".. .O.E ..E E %.~ Q ' ' K K L Q L L ) [ [ [ ~ ~ W ' ' Q ) ) r.@ L ) / L K H J H H J L ) ) ) ] { i.s.*.' E ~ r  .3.! P = 7 8 = = ",
"8.>.#.$.^.c w o.T T T ^ y.g.n.n.C.C.C._.|.Z.a.=.*.s.M.C.D._.+XJ r._.m.N.n.n.h.y.{ s.n.'.].'.C.Z.{.|.{.B.x.0. ...4.! ^ { y.g.h.j.",
"7.Z A #.9.e N -.9 t 1.:.{ h.n.n.n.M.M.M._.B.v.p.g.M.C.Z.V.C.].I { _.n.n.n.C.N.g.y.r.g._.|.].C.n.N.{.].D.B.0. .+.6.^ R { y.s.h.m.",
"v.$.#.#.w.a ; w E r p ..' g.h.h.i.p.x.a.x.B.a.a.B.Z.Z.N.n.M.].Q { ].n.N.V.V.N.n.g.y.i.M.C.C.N.n.h.].{.'.D.k.O.+.%.T 3.` *.s.g.h.",
"p.&...@.w.m 5 9 U r r X.+.y.g.h.E  .O.@.u.k.k.(.v.l.v.M.h.n.'.I { ]._._._._.V.N.h.i.g.N.h.i.h.M.Z._.'.'.D.6...O.T :.4.! ' *.i.h.",
"&. .%.O.7.p r p E E T T ' s.h.d.O. .n n O.=.(.V.l.k.c.g.h.h.Z.L { ]._._.'.].].C.M.n.V.V.h.g.M._._.'.D.'.D.k.O.W  .@.3.! Q ` ' y.",
"=.O. .n M c c X.@.^ Q { %.y.d.=.O.U x  .E E O.(.l.l.h.s.i.i.N.Q _ '.'._.V.V.'.]._.]._.C.C.Z._._.'.'.'.'.Z.l.6.6.^ %.3.T T K p W ",
" .x n x c B K.N +.K ~ *.y.*.*.%.E n x r e e x @.l.v.M.g.i.s.h.Q ) '.].C.C.N.C.].|._._.C.C.N.C.C.Z.D.D.D.Z.l.f.d.=.~ %.~ U r 2.N ",
"q , , q c N G m E ~ ~ *.*.%.%.=. .U U r v R.I.n v.v.N.M.g.s.g.Q ) D.]._.C.n.C.V.C.C.M.N.N.N.M.N.C.C.N.N.N.f.f.*.` Y %.~ r o.>.m ",
", B k g C C b a O.^ O.` %.~ T O.~ E ~ w x ~./.Z v.Z.Z.N.h.y.s.I L n._.C.N.n.n.m.N.C.N.N.B.n.M.M.N.N.m.h.h.5.4.` *.%.~ ~ t n n ..",
"< B G.J.z S V p E W Y ) ` U E U r e r w w v B ..B.(.Z.M.h.s.s.R L N.Z.C.n.g.g.n.p.M.N.M.M.M.M.n.h.h.d.s.5.{ ' ) ) ' Q ~ E W  .@."
};
