/* XPM */
static char *floor[] = {
/* columns rows colors chars-per-pixel */
"64 64 39 1 ",
"  c #25221E",
". c #29241F",
"X c #272420",
"o c #2B2622",
"O c #2D2924",
"+ c #2E2C29",
"@ c #322B26",
"# c #332E2A",
"$ c #392F29",
"% c #35312D",
"& c #3B322D",
"* c #363432",
"= c #3C3532",
"- c #3C3836",
"; c #373838",
": c #3C3C3B",
"> c #41362F",
", c #46382F",
"< c #413631",
"1 c #443A32",
"2 c #493D34",
"3 c #423D3C",
"4 c #4A3E38",
"5 c #4C4037",
"6 c #42403E",
"7 c #4E4038",
"8 c #3E3F40",
"9 c #403F41",
"0 c #3F4041",
"q c #424445",
"w c #484444",
"e c #434749",
"r c #454A4C",
"t c #484B4E",
"y c #474C51",
"u c #494D51",
"i c #4D5155",
"p c #505356",
"a c #52585B",
/* pixels */
"1>&8aiuuyytyyyuy31242,><=<$$@:etttyrytyyyryyyryryrrrrry2,&%e6-&1",
"<=9tpurtrrruyutq<22422<>=$=$#@:etrtttryyyyyyyyyyri6556rr&%$6e6%&",
"<<&-3ertttyryt6112,22,,<*$@:*@@:ryyyyryyryiyyyyyrr55,2er:&&=r-&&",
"<&$@#%3qerryre1112211,>>$#:yq@@#:trrrryryyyyiyiyrq155,5r6%%$%%%%",
"=&#@@oO#-0ettt1111242>>=$8rru:O@@0rrrrrryyyyyyiyye12,,-6r1%$%#%$",
"=98;#OXo.O%-0e1-<<1111>$:errrr*O#$qrererryyyyyyyy6,221,-rq$$%%%%",
"=qeee8*+OoO@$&-><<<111<-eeerrre#@$&eerrerriryyiyr6122111e6%$%&%&",
"9eeeeee0:*@@#&-&=<<111<<eeeyrrr:#$&=rrery6ryyyyy62,,1,-1--&%&&%1",
"rr0y0y0re00;*&%&&=<<<1<&8erryeyy:$&&3rrerrrrrrrye>1511>--1%&-6er",
"yyy0y0yrerrrr0=%&===<11>8eeryey9r&&&&6errrrwrr6ye>>11>&-1%1-6rrr",
"0yyry0r0ererrii3&===<<1<=9ereryyyw&=&>,errrerrrr0:>11>,--1%1errr",
"ryy0yyr0ee0rtie&$&&&<111>3erryyyur6,>==eeeeer6rrr:&1>-qr%&%e6err",
"ryrrreeeereeyi3$$==><122<<9teyyyryu6,&&:eerrr66r6*>11rr6%@6rrrry",
"r00rr00reeeeiw$$&&=<<1242,1eeyyyyyyr,&&&qer00rrq*>1>0re0@+qrrri6",
"i0yyeeeeeeeti&&&<=<<1242422eyyyyyyyiq=@@=q0rreq-*->-q:*+o-qrrirr",
"0yy0eeeeeett1>&<=<<14444222wuuyuyyyyiq*@O:0rrq0%$&&$@Oo++o-r66rr",
"i0r0rr0yrrrt&>>>>>&551552,4tttuuryypypq=oO0000-@$&&#@%:::%o%6err",
"0iy0r00rqru1$5,,1151555-44rtuttuyyyyyri6*X*0*oOO@#$*:60e00-OO;6e",
"iyyyrrrrrr6$,>5&5155555=9tuuuituyyyyyyyr0OXXX.O+*86qyrryrr6-+.+:",
"0y0y00rrri-,15555555-1559uuuuuttyrrpyyyi0*O+*;00000yyyyyyyre:%.O",
"*erryrrei6>>,111555,5510yyyuuuuuyryyrype:O*0eeee0yryyyiyyyyyr0&O",
"$%1rrrryt>>>>1,5,2255,5yyuuuiuuuiryypyq5++;rrreeryryyiyyyyry0y6%",
"%&$%eryy2&>>->11,>>,15qyyyyiyyuurrippq:+XX;eeerrr0yy0yryyyyyrry0",
"@#%&%0yy&%*-1>60660005ryyiyiyiuuteer6*o.*+O:eerryyyyyyryryryiiri",
"1%#&&&11&*&6rr0ieeeri0iiyiyiuiuurre6@OO%:-.*qerrryyyryyrrryriyyr",
"r0%@&>>&&&:0ryy0rrrr0yy0yyyiuuuur76OoO%:q6Oo-erryyyyyyyrrryyyyrr",
"yre%#&>,==e0r0yyryrryya00yyyyuuwq1o.o*:eyr-O@qeryyyyiyyyyyyyyyir",
"rrrr-%%&$00rrryyyyyyyyyyiyyyyyi91..O*0ypir0@@-eryiyyyyyyyyyyyyyy",
"rryyr6%@@;r0yyyry0iyyyyyiyayii9*o.+:0ryyypr1O@qrrriryyyyyyyyyyrr",
"eryyrp6@o#0ryyryyi0ayyyyyy0iy8#O.+;00ryiriie#O-ryyyyyyryryyyryrr",
"eeryiyr-oO600rrryi00yy0yyyii8#oo+;e6ryyyyyyy-@#6yrrryryrryyyyrrr",
"erryryy6#.;qyyryy0aiyyiyyi00+oo*;rriyyyyriyr6@#-rrrrrrrrryryyrrr",
"rryyyyuw:X%;::0qr0yttrtrp6:@.O-6yiitttyyiryir%%&:6rryr0rryrrrrrr",
"ryyyyuur:+XO+#**-:666rtt6:Oo+;0yyrttyrytyyy6r:%,-:6ry6irryyyyrrr",
"ryyyyyu3=O***OX ..O@*;666O.+;qiriirryyyrrrrrr6-%*1yrrrrrriryyryr",
"ryyyyuw= *;:;;**Ooo@@oO@oo*;ryyiyyirtyyyrrrr6y:&&-q6ry6r66r6ryry",
"y0iyur-o+;:yre08;;*%@OOO@*6yrririyyiyiyyyyrrrre&&&-qrryre16errrr",
"ryyyu-o.*;ryyyyryy0066:@@*qiyiriyyyyyyyrrrrrree6&%&:qe66-11-6err",
"rryy6@o+;0iyryyyttyyyrr:o+6ryryyiyyyyyyrrreeqeee%&&-:6r--11>1-qe",
"eyye#o#;eeyyyyyyrryyrrtr*.*6yyyryyyyyyyrrreereer:%&->-:>1,,>>>,,",
"e9-$OO=qyyyyyyyyrryyrrrr0oo:errrrrryyyyyrrrreeeeq%&>&-,&11,1,,&,",
"=$$@O*:euyryyyyyryyyrttte*X*0rrrrryyyyyyrrrreeeee6%&&&,&&122555,",
">$$@O*8yy0yuyyyyrrrrttrtr0oo:erryyyyyyrr0rrre0qeee>%&,-,,222555,",
"<$*@o#8ryruyyyyyyrrrrrttre*X*0rrr0ryyye16reereqeeq-%*>,,,222,,,$",
"#:q%o@:erryyyyytretrrrtrre:XX:eerryyyrre50eeeeq::>%%&112,,55,>>$",
"ere=@o:qryyuyyyrtrttrrrtree%X#qrrry0ryyrr-1-::-%%%&&&&11555,$$@%",
"yre:Oo*eiyyyytrtrretttteree0.o;rrrryyyryr6&&&&&%*%&>%1,55,,$%*6e",
"yer9OO#qiyyyyrrrererrrrtrree#O@qrrrrrr0yre-&&>&-&>>>,,,,,>-1errr",
"rrr0+X%0iyyuyrrr0yy0a00a0yy0:O@:yyryrrrree&&&1>>>&1>$5,,3qrrryru",
"rerr;X+:tyytttrryi0iii0ai0yyq%&&0y0y0y0y0e-&&&1>>1,155&tttuuyryy",
"yy0r;XX8eetttyyyy0yy00a00000=&&&0rr0y0r0e0-%&==>>1155=ruuuuytyry",
"00y08XX;0ertyyyyyi0iiy0a00;;&&&#*0rr0r00e0&%&&&&&>>,5wuuuiuyrryy",
"y00008X;qeruyyyyyyy0yyyyy0000*%##00008;+OOO%$@$$$&&>5tuuiuuttruu",
"0yy00;X*0eeuyyuyyyyy0yyyyyyye:*#@@ooXX  XoOOOO++%%#,16iyuuurrytr",
"yi0y08+*0eeruyuy0yi0yyy0yy00eq*++oO++++%%**;;::000#$>1yiuuyrtrtr",
"y0y000++8eettyyyyyyyyyyi0y0yeq0++;;;;;:;80eerreuyr-@&>ryuuuryuty",
"y0yye0oO:eeryyyryyyyyyy0i0y0000X+;0y00iiuuuuuuuuuu6$$>6yuutrrurr",
"yy00re#X-0rrrrryi00yy0y00y0000+X;00iaia0uuyuuuuuuyu-@&,etttrtrry",
"0i0yre:o*::qeeeriyi00y0ryy0y00++000iyai0yyuuuyyyuut6@$=5tyrrryry",
"i0yrr0*XXO#%=:8e0i00yyyry00a00X;00iyy0iayryutyrryttr&$,,76errrrr",
"00a0q*X%*O XoOO#*6e000000y0y0;*00yiyii0ayyyyyrryyrtt6&,5,551qerr",
"0ai0=X*:8;=@o@@#&&>*;00ey0y00X;0i0yy0aa0rytrryrrryttr&5,=5=,,-66",
"000;X%:9uut9;#$=>>>&-&*q0y0y0+000aaiya0ayyyyrrrertyru5555=5=5=,=",
"00+X#:8uuyeyt8-=&>>-,**;0000+;00yy0yy0yyyyryy0rrryyyte&=,,,,=,,,"
};
