/* XPM */
static char *d755b16ba69f4ac1a43aee75b0cea61bgh2diPHFZqPemr6U[] = {
/* columns rows colors chars-per-pixel */
"64 64 66 1 ",
"  c #FD9F27",
". c #F79B33",
"X c #F89D33",
"o c #F0983E",
"O c #F2993E",
"+ c #F39C3F",
"@ c #EA944A",
"# c #EE9A4B",
"$ c #E49055",
"% c #E99857",
"& c #E2925D",
"* c #E3935E",
"= c #DE8D61",
"- c #D7896D",
"; c #DE9067",
": c #DF956F",
"> c #D48874",
", c #D98D70",
"< c #D18678",
"1 c #DA937B",
"2 c #E49763",
"3 c #BE7B9B",
"4 c #B778AD",
"5 c #BC7DA8",
"6 c #AB70BE",
"7 c #B273B2",
"8 c #B377B6",
"9 c #B87FB7",
"0 c #C57E8F",
"q c #C27D95",
"w c #C37F96",
"e c #9F68D5",
"r c #9F68D6",
"t c #9D68DA",
"y c #9D68DB",
"u c #9F6CDB",
"i c #AD78CC",
"p c #A26DD4",
"a c #A672D5",
"s c #A575DE",
"d c #A97ADD",
"f c #9965E0",
"g c #9A67E0",
"h c #9D6BE1",
"j c #9E6DE1",
"k c #A071E2",
"l c #A272E3",
"z c #A374E3",
"x c #A476E3",
"c c #A578E4",
"v c #A97EE5",
"b c #BE80A9",
"n c #CB8284",
"m c #D59187",
"M c #C88492",
"N c #CA8998",
"B c #CB8E9F",
"V c #D09093",
"C c #C68CAB",
"Z c #C18BB7",
"A c #BC89C3",
"S c #B582C8",
"D c #B787CF",
"F c #B286DB",
"G c #AC82E6",
"H c #AD84E6",
/* pixels */
"     nfffffffzHm     ffffffffHb     MggfffffzH%    $ffffffffGZ  ",
"     nfffffffzHm     fffffffgHA     nhffffffzH%    $ffffffffHb  ",
"     nfffffffzHm     fffffffgHZ     nfffffffzH%    $ffffffffHZ  ",
"     nfffffffzHm     fffffffhHZ     nfffffffzH%    $ffffffffHZ  ",
"     nfffffffzHm     ffffffffHZ     nfffffffzH%    $tyffffffHZ  ",
"     nfffffffzHm     ffffffffHZ     nfffffffzH%    $ffffffffHZ  ",
"     nfffffffzHm=X1X ffffffffHb     nfffffffzH%<O1 $ffffffffHZ  ",
"     nfffffffzHbgrGAXffffffffHZ     nfffffffzH4fuGC$ffffffghHZ  ",
"     nfffffffzGyyfkH2fffffffhHZ     nfffffffzvfffzH,ffffffffHA  ",
"     nffffffflHNe8H: fffffffhHZ     nfffffffzHMf8H:$ffffffffHb  ",
"     nffffffffcF% #  ffffffffHZ     nffffffffcF; # $ffffffffHZ  ",
"     nfffffffffcF#   ffffffffHZ     nfffffffffcF#  &ffffffffHZ  ",
"     nffffffffffcF# XfffffffgHb     nffffffffffcF# $ffffffffHZ  ",
"     nffffffffffkH:  fffffffgHA     nffffffffffcH2 $ffffffffHZ  ",
"     nffffffffflH:   gffffffgHZ     nfffffffffcH2  $ffffffggHZ  ",
"     nfffffffykG:    fffffffhHZ     nffffffffcH:   $ffffffghHZ  ",
"     nfffffffgGbX    ffffffffHZ     nfffffffkHb    $ffffffffHA  ",
"     nffffffffhGB    gfffffffHZ     nffffffffcHB   $ffffffffHb  ",
"     nfffffffffhHB   ffffffffHb     nfffffffffkHB  $ffffffffHZ  ",
"     nffffffffffzHV  ffffffffHZ     nffffffffffkH1 $ffffffffHZ  ",
"     nffffffffffGF#  fffffffhHZ     nfffffffffgvAX $ffffffffHZ  ",
"     nffffffffgvF#   fffffffgHZ     nfffffffffvAX  $ffffffffHZ  ",
"     nfffffffgvF#    fffffffgHZ     nfffffffgGAX   $ffffffffHZ  ",
"     nfffffffzHm     ffffffffHZ     MfffffffzH%    $ffffffhjHZ  ",
"     nfffffffzHm     ffffffffHb     nfffffffkH%    $ffffffffGbX ",
"     nfffffffzHm     rffffffgHZ     nfffffffkH%    oeffffffhHC  ",
"     nfffffffzHm     @rfffffvAX     nfffffffzH%     @effffjGAX  ",
"     nfffffffzHm      @rffgvAX      nfffffffzH%      @tffjGAX   ",
"     nffffffflHm       @ffvDX       nfffffffzG%       $yyHDX    ",
"     nfffffffzHm       3ffkH:       nfffffffzG%      .6yfkH:    ",
"     nfffffffzHm      3ffffkH:      nfffffffzH%     .6ffffkH:   ",
"     nfffffffzHm     3ffffffkH:     nffffffyzH$    .ifffffgcH:  ",
"     nfffffffzHm     3ffffffkH:     nfffffffzH%    X6fffffyjH:  ",
"     nfffffffzHm      3yfffkH:      nfffffffzH%     .6ffffkH:   ",
"     nfffffffzHm       3ffkH:       nfffffffzH%      .iffuH:    ",
"     nfffffffzHm       @ffvDX       nfffffffzH%       $ftcDX    ",
"     nfffffffzHm      @rfffvAX      nfffffffzH%      @tyfhGAX   ",
"     nfffffffzHm     @rffffgGAX     nfffffffzH%     @effffjGAX  ",
"     nfffffffzHm     rffffffgHC     nfffffffzH%    @efffffgjHZ  ",
"     nfffffffzHm     ffffffffHZ     nfffffffzH%    $yyffffghHb  ",
"     nfffffffzHm     ffffffffHZ     nyffffffzH%    $ffffffffHA  ",
"    @rfffffffzHm     ffffffffHZ    @rfffffffzH%    $ffffffffHb  ",
"   @rffffffffzHm     ffffffffHZ   @rffffffffzH%    $ffffffffHZ  ",
"  @rfffffffffzHm     ffffffffHZ  @rfffffffffzH%    $ffffffffHZ  ",
"  qffffffffffzHm     ffffffffHZ  7ffffffffffkG%    $ffffffffHZ  ",
"   3fffffffffzHm     ffffffffHZ  X6fffffffffzH%    $ffffffffHZ  ",
"    3ffffffffzHm     ffffffffHZ   .6ffffffffzH%    $ffffffffHZ  ",
"     7fffffffzGm     ffffffffHZ    .rfffffffzH%    $ffffffgjHZ  ",
"    >yfffffffkHm     ffffffffHZ    3ffffffffzH%    $ffffffffHA  ",
"   -fffffffffjHm     ffffffffHZ   3fffffffffzH%    $ffffffffHb  ",
"  -yfffffffffzHm     ffffffffHZ  3ffffffffffzH%    $ffffffffHZ  ",
"  @rfffffffffzHm     ffffffffHZ  -ffffffffffzH%    $ffffffffHZ  ",
"   @eyfffffffzHm     ffffffffHZ   -fffffffffzH%    $ffffffffHZ  ",
"  $ &tfffffffzHm     ffffffffHZ  oX>ffffffffzH%    $ffffffffHZ  ",
" 3f9FqyffffffzHm     ffffffffHZ 3rSA3gffffffzH%    $ffffffffHZ  ",
"<yffvsyffffffzHm     ffffffffHZnffgHifffffffzH%    $ffffffhjHZ  ",
".6ysH5fffffffzHm     fffffffjHZ+6fdFwfffffffzH%    $ffffffffHA  ",
" .<X2nfffffffzHm     fffffffgHZ X=##nfffffffzH%    $ffffffffHb  ",
"     nfffffffzHm     fffffffgHZ     nfffffffzH%    $ffffffffHZ  ",
"     nfffffffzHm     ffffffffHZ     nfffffffzH%    $ffffffffHZ  ",
"     nfffffffzHm     ffffffffHb     nfffffffzH%    $ffffffffHZ  ",
"     nfffffffzHm     ffffffffHA     nfffffffzH%    $ffffffffHZ  ",
"     nfffffffzHm     ffffffffHb     nfffffffzH%    $ffffffgfHZ  ",
"     nfffffffzHm     fffffffhHZ     nfffffffzH%    $ffffffgjHZ  "
};
