/* XPM */
static char *est[] = {
/* columns rows colors chars-per-pixel */
"64 64 30 1 ",
"  c #2F2D2C",
". c #312F2C",
"X c #33312E",
"o c #353432",
"O c #393735",
"+ c #373837",
"@ c #3A3836",
"# c #363738",
"$ c #373838",
"% c #3C3C3C",
"& c #403E3D",
"* c #3F403F",
"= c #41403F",
"- c #3D3F40",
"; c #403F40",
": c #3F4242",
"> c #414445",
", c #484746",
"< c #434749",
"1 c #484748",
"2 c #45494C",
"3 c #494B4E",
"4 c #464C50",
"5 c #4A4E51",
"6 c #4D5154",
"7 c #4E5559",
"8 c #515355",
"9 c #51565A",
"0 c #55595D",
"q c #595D61",
/* pixels */
"22<244::::oo*$**::::4:6:::::::<@X@*:****%@+X<32225565554222:2:::",
"<<<<:44:::#o$**::44455::::::::<*@*:::****@%X<322222354442222:::-",
":<<:2:2<5::*::*:::4:::67::::<<,*%:::::**$**X<32<2245432442::>>;%",
"2<<<:2:<:4**:4::4:44:7:::7:::<<@*::2:*::***O>335262335222242>>-@",
":2>><<222<$$:6:7242222<<:7:::4,**>>>:::::**O:24553333222222<>:-@",
":2<<<2222:**4:::43222222::::::1=*<2<:::::*:*:444423<21112222<:-@",
"7665632<::**::7:<22<2<<<7:76766=253356762<<>>2:4<<><>>>>>>><>;-@",
"@@@@OoO@oOo####*oXooXX#+:#*$*@*oO@OOO@@$@OOoOOoXooooXXoXXooooX..",
"%%@@@oX5755222:2:*O@>:::::*:*$@$@O$OoooX607776565543%242242222;<",
">--&&@o164222222<>O*><<<22<:**********Oo,6776656544,%32224334222",
":-;-%@X,2222:2:4<*@=<<<2<<::****::::::*o16655433322;;2222223422<",
"::;;%@o>222244:::*@=32<<2:2::*::::::><>@<3<<3,<<232-;4212123:444",
"::&%%%.>2442422:**O>42<<22:2<::::::<<<2*,<<<<<<3111%,22222224444",
"--;-%%o>4224222:>=O,76642::::::::::::23**,,>>>><<<<@,32,2;214:44",
":%%%%%o:<<::::::*@O5q7642242:::::::2444=****=*=*>>;%395322124242",
"oo.o.. ooooXXX..X..@@@@$ooooooo$oo$$OO@@.oooOoOOXoo.,;;;;;&;$#oo",
"222122224224235*,552<333336O::::::::::::-:%%$%%o@%%@$#o.... @322",
"233222244222<<,@>><><<<<2<3O32:244442<<<:::----%%>::---%%$@O%424",
"4444444422<2<<,o=:<<,<<<<3<@434444:42<<:::::---+%<222<<<<;--%<11",
"23455424222<2<>o*::<><<<<<1@76657:442:2::::>-%%O;2222<2:><<;O>><",
"<<22222222<<<<*o*****>>>><>@777647::<<::::::>:-%>2222222:<1>O:>>",
"<1212221<<<<::*X$$***::>>,>*07654::7<<2:<::<:>>O-12224214221O%->",
":><<1<<<:>:*::*X++$****:>>==q7757:7:<<:::::2>:-O>531222122<1O%%%",
"O+@%%&%@*O*OO*$ XX.X.oo@@@@=52,<::::>>:*****%%Oo>,,,<>>,<<,,.XoO",
"%:%oO##O###o*$$$+$$$+%-..oo#$$$$---$   .###$$####o##+++@.. .Xoo#",
"<<-O::::::::::::::2:>>2o+%:>2::2::4-o$%-:::::::<::::::21XXO%%%--",
":<%O::::::::::<<<<<<>:3O-:>2<<<>::4:+--::4:42::::::2:212O@&%%--:",
"21-@:::<::::::<<<:<:>25O-::2<<>:::::$:::::4:2:<:<:::2:25O&&%--::",
":4;@;>:::2:2:4244424245O%->2<:>>>;<&%::42:44<>>>::2:1246O%:>::::",
":4&@-><>4::24:244432244O%:><2<>>><<;-:22222:<<>::2:23556O:>>::4:",
"44>@:>><:2:2:4235222258O$-:2:<<>>>2;->:42<<<<:>>:>221589@><<<2::",
"55;%--%-:::<2<<<<333338%%---:>>>;>,%%---:%::::>>>1238889&>,<<246",
"#+ooo#o+O%%O$####oo#oo##oOoo....%$%-->--***Ooooo$*oo::#:##:-## #",
":::2:>><><<>442:>>---:-:::-%%@oo1214578652:*::2::::::::::::7::::",
"<:2::2:>><>=4242<->->:;<:::>&%%o2122355532<@:2<24:42:77:::7:::::",
":2:2::>>>>::442222<<>2<<24<<;%%O<<1<<2223,<@:2:::::47:::7:::7:7:",
"24::>:>::<*>22222:4:212242:2:%%O><,>111<<<>O:::::4:7:7:7::::::7:",
"::::::::::=<62422244422242241>:O:<:>>>><<>=O4444:45:7::7::::::::",
":::2>>>><<><6446424242224222<1>o**=***::***O422:5:54:5::4:::::::",
"$$--%%&<<,>,6632>:222222222:>:>o@@oOo@+@*@oX654444667:::::::::::",
"#XooXo#XoooO#o#oo#@XXXXX#oXoo#Oooo.X.XX#o#oX*oXoXoXX%%%@$$#X##o#",
"2222:2>$<::<:<<<2<6X&;;<2:2222422222222:<2526:::>==O30665444222<",
"<2<<><>O<<<:<<><<>3X--;>22242224444:22<=:2<<4:4:<:>O165222442<<2",
":::::>%@:::::::>><2X%-->:2:4<2244444<22&:222:4:4:<>@3632222:222<",
":>:-::%@-::::-:::<1o%--:4:4:24:44444422>>222:22:<:>@<1<2<,<<<<2<",
"----::%O%--%---::<1.%-:::::2::444444:42*>3422:::<**@>2<11<<>><>>",
"%&-%--@O%%-%$-%-:21.--2::2:22::4:444442*=22::::2=**O%11<>>>:::::",
"@@@@@@o.O%$$$$%-:22o$::2:2:::22:4444444>,422424:=*@X%>%*%:***%%%",
"    .  .       .-- #oo-o XXX#.ooooooo+OO@+@+OOOXoXXXXXXX .XX.X..",
"556542242444225%:4:::-:--X ----->::%%$##OOO$@ooX<93555335456%667",
"444424244442225%::7:4:::;$o#2-221<<>:*:-%%%%%*%X,5,,3<<,<<22%645",
"4242222222<2222@74:7:77:;-##42;2<<<>>:::%:*%:**+><<<<<<<<<<,@244",
":4<<<<2<2<<<22;%7:4:4:2<;-$@312;>2:::::::%:::::+=<,<><<<><<,@222",
"4:<<<<<<<,<<2<;;44:742222;@#2<;;>>:24:::%::%:::$*<<<>>::>:<>%<22",
":::>>>>>:2><>>&&4::2:41<2--$2;42422::::::::::2:*@>********==O>>>",
"%%--::::::;>%%O;5444:2<>-;--q46646444::::::::<2:O%@%@%%%@*%@o%**",
"...oo ooXo$#Xo #:$%$+o+%%@+%,,>,;;&&@@OO+ooOoo$+ X.   ....X  XX ",
"22-o$--:::::::::--$**:,XXXXoXXXXo. o965222<<<<::::::::%>@2333331",
"22--:::42:7:444:422::22oO%%%%$%%%%%Oq7666<2424224424<><<@22<1322",
"22-:::4::644444::4:2<<2O$%%*%*:::::O9754423222244442<<<>*<32<<3<",
"12%%2:424444444:2:2:<<<o%%:%:::<>>>@9652<2<2<2222444>22>@33<13<<",
">>@-:::424442:4::::2><<o%:::::<:><3%6522<<<<<<1<2222>1<:@2<<2<<1",
";;@%:4:4:44444:4::>>>>2+:2<:><>><26=<22<<><>::>::<21><>-O1<<>><>",
"-&o%::::2:4444:42<12254$4:22<<><<59,><<<>>>:%:%-::<:%>>%O<>:>>>>"
};
