/* XPM */
static char *_fd12a8f5340434da4d89da5128ff596NYsdKXmJzXKyJRzm[] = {
/* columns rows colors chars-per-pixel */
"64 64 66 1 ",
"  c #FE7D70",
". c #FE7C74",
"X c #FE7D75",
"o c #FE7978",
"O c #FD9F27",
"+ c #FD9B2F",
"@ c #FD9737",
"# c #FD9D30",
"$ c #FD943F",
"% c #FD9938",
"& c #FD9B39",
"* c #FE8C4F",
"= c #FE9047",
"- c #FD9942",
"; c #FD904E",
": c #FD924F",
"> c #FE974C",
", c #FE875D",
"< c #FE8858",
"1 c #FE8B5C",
"2 c #FE9655",
"3 c #FE945E",
"4 c #FE8460",
"5 c #FE8068",
"6 c #FE9267",
"7 c #FE8274",
"8 c #FE817A",
"9 c #FE877B",
"0 c #FE8E79",
"q c #FE9070",
"w c #FF7686",
"e c #FF7B83",
"r c #FE7F85",
"t c #FF7188",
"y c #FF758C",
"u c #FF6D90",
"i c #FE7C91",
"p c #FF759F",
"a c #FF65A1",
"s c #FF66A0",
"d c #FF65A5",
"f c #FF68A0",
"g c #FF6AA1",
"h c #FF69A6",
"j c #FF62A8",
"k c #FF64A9",
"l c #FF68AB",
"z c #FF6AAC",
"x c #FF6EAE",
"c c #FF6FAF",
"v c #FF70A4",
"b c #FF72AC",
"n c #FF77AD",
"m c #FF71B0",
"M c #FF75B3",
"N c #FF77B4",
"B c #FF7BB6",
"V c #FF7FB8",
"C c #FE8C83",
"Z c #FE8A8C",
"A c #FF8895",
"S c #FF879E",
"D c #FF80A0",
"F c #FF85A7",
"G c #FF83B0",
"H c #FF81B9",
/* pixels */
"OOOOO5jjjjjjjmHqOOOOOjjjjjjjjHAOOOOO jjjjjjjmH>OOOO*jjjjjjjjHAOO",
"OOOOO5jjjjjjjmHqOOOOOjjjjjjjjHAOOOOO5jjjjjjjmH>OOOO-jjjjjjjjHAOO",
"OOOOO5jjjjjjjmHqOOOOOjjjjjjjjHAOOOOO5jjjjjjjmH>OOOO=jjjjjjjjHAOO",
"OOOOO5jjjjjjjmHqOOOOOjjjjjjjjHAOOOOO5jjjjjjjmH>OOOO=jjjjjjjjHAOO",
"OOOOO5jjjjjjjmHqOOOOOjjjjjjjjHAOOOOO5jjjjjjjmH>OOOO=jjjjjjjjHAOO",
"OOOOO5jjjjjjjmHqOOOOOjjjjjjjjHAOOOOO5jjjjjjjmV>OOOO=jjjjjjjjHAOO",
"OOOOO5jjjjjjjmHq*#6#OjjjjjjjjHAOOOOO5jjjjjjjmH>,@6O=jjjjjjjjHAOO",
"OOOOO5jjjjjjjmHrjgVS#jjjjjjjjHAOOOOO5jjjjjjjmHyjdVC=jjjjjjjjHAOO",
"OOOOO jjjjjjjmVdjjzB2djjjjjjjHAOOOOO5jjjjjjjbBjjjNH1jjjjjjjjHAOO",
"OOOOO jjjjjjjcH9pyV6OjjjjjjjjHAOOOOO5jjjjjjjcH7j8H3=jjjjjjjjHAOO",
"OOOOO,jjjjjjjjMG:O&OOjjjjjjjjHAOOOOO5jjjjjjjjMG:O&O=jjjjjjjjHAOO",
"OOOOO jjjjjjjjjMG-OOOjjjjjjjjHAOOOOO5jjjjjjjjjMG-OO=jjjjjjjjHAOO",
"OOOOO4jjjjjjjjjjMG-OOjjjjjjjjHAOOOOO5jjjjjjjjjjMG-O=jjjjjjjjHAOO",
"OOOOO jjjjjjjjjjcH3OOjjjjjjjjHAOOOOO5jjjjjjjjjjMH2O=jjjjjjjjHAOO",
"OOOOO4jjjjjjjjjcH3OOOjjjjjjjjHAOOOOO5jjjjjjjjjMH3OO=jjjjjjjjHAOO",
"OOOOO jjjjjjjjcH3OOOOjjjjjjjjHAOOOOO5jjjjjjjjnH3OOO=jjjjjjjjHAOO",
"OOOOO,ajjjjjjkVAOOOOOjjjjjjjjHAOOOOO5jjjjjjjlVAOOOO=jjjjjjjjHAOO",
"OOOOO jjjjjjjjlVCOOOOjjjjjjjjHAOOOOO5jjjjjjjjcHCOOO=jjjjjjjjHAOO",
"OOOOO jjjjjjjjjlVCOOOjjjjjjjjHAOOOOO5jjjjjjjjjcHCOO=jjjjjjjjHAOO",
"OOOOO jjjjjjjjjjlH0OOjjjjjjjjHAOOOOO5jjjjjjjjjjbH6O=jjjjjjjjHAOO",
"OOOOO<ajjjjjjjjjVG-OOjjjjjjjjHAOOOOO5jjjjjjjjjkBS#O=jjjjjjjjHAOO",
"OOOOO jjjjjjjjkBG-OOOjjjjjjjjHAOOOOO5jjjjjjjjkBS#OO=jjjjjjjjHAOO",
"OOOOO jjjjjjjkBG-OOOOjjjjjjjjHAOOOOO5jjjjjjjkBS#OOO=jjjjjjjjHAOO",
"OOOOO jjjjjjjmHqOOOOOjjjjjjjjHAOOOOO5jjjjjjjmH>OOOO=jjjjjjjjHAOO",
"OOOOO ujjjjjjmHqOOOO+jjjjjjjjHAOOOOO5jjjjjjjmH>OOOO=jjjjjjjjHAOO",
"OOOOO ajjjjjjmHqOOOO+ujjjjjjkHZOOOOO5jjjjjjjmH>OOOO@sjjjjjkkH0OO",
"OOOOO jjjjjjjmHqOOOOO$jjjjjjBS+OOOOO5jjjjjjjmH>OOOOO$sjjjklVCOOO",
"OOOOO jjjjjjjmHqOOOOOO=ujjjBS+OOOOOO5jjjjjjjmH>OOOOOO$sjjkHCOOOO",
"OOOOO jjjjjjjlHqOOOOOOO-jjBF+OOOOOOO5jjjjjjjmH>OOOOOOO=jdBAOOOOO",
"OOOOO jjjjjjjcHqOOOOOOOojjcH3OOOOOOO5jjjjjjjmH>OOOOOO+ujjcH3OOOO",
"OOOOO ujjjjjjcHqOOOOOOojjjjcH3OOOOOO5jjjjjjjmH>OOOOO+ujjjjcH3OOO",
"OOOOO<jjjjjjjcHqOOOOOojjjjjjcH3OOOOO5jjjjjjjmH>OOOO+ujjjjjjcH3OO",
"OOOOO5jjjjjjjmHqOOOOOojjjjjjbH3OOOOO5jjjjjjjmH>OOOO#ujjjjjjMH3OO",
"OOOOO5jjjjjjjmHqOOOOOOojjjjcH3OOOOOO5jjjjjjjmH>OOOOO+ujjjjMH3OOO",
"OOOOO5jjjjjjjmHqOOOOOOOojjcH3OOOOOOO5jjjjjjjmH>OOOOOO+ujjMH3OOOO",
"OOOOO5jjjjjjjmHqOOOOOOO$jjBF#OOOOOOO5jjjjjjjmH>OOOOOOO4jsVF#OOOO",
"OOOOO5jjjjjjjmHqOOOOOO$ajjjBS+OOOOOO5jjjjjjjmH>OOOOOO<jjjlHS#OOO",
"OOOOO5jjjjjjjmHqOOOOO-pjjjjjBS+OOOOO5jjjjjjjmH>OOOOO<jjjjkkHS#OO",
"OOOOO5jjjjjjjmHqOOOOOsjjjjjjdHZOOOOO5jjjjjjjmH>OOOO$jjjjjjjkHZOO",
"OOOOO jjjjjjjmHqOOOOOjjjjjjjjHAOOOOO5jjjjjjjmH>OOOO=jjjjjjjjHAOO",
"OOOOO ajjjjjjmHqOOOOOjjjjjjjjHAOOOOO jjjjjjjmH>OOOO=jjjjjjjjHAOO",
"OOOO$ajjjjjjjmHqOOOOOjjjjjjjjHAOOOO-sjjjjjjjmH>OOOO=jjjjjjjjHAOO",
"OOO$ajjjjjjjjmHqOOOOOjjjjjjjjHAOOO$sjjjjjjjjmH>OOOO=jjjjjjjjHAOO",
"OO$pjjjjjjjjjmHqOOOOOjjjjjjjjHAOO$sjjjjjjjjjmH>OOOO=jjjjjjjjHAOO",
"OO jjjjjjjjjjmHqOOOOOjjjjjjjjHAOOtjjjjjjjjjjbH>OOOO=jjjjjjjjHAOO",
"OOOojjjjjjjjjmHqOOOOOjjjjjjjjHAOO+ujjjjjjjjjbH>OOOO=jjjjjjjjHAOO",
"OOOOojjjjjjjjmHqOOOOOjjjjjjjjHAOOO+ujjjjjjjjcH>OOOO=jjjjjjjjHAOO",
"OOOOOtjjjjjjjmH5OOOOOjjjjjjjjHAOOOO+sjjjjjjjmH>OOOO=jjjjjjjjHAOO",
"OOOO<jjjjjjjjmHqOOOOOjjjjjjjjHAOOOOojjjjjjjjmH>OOOO=jjjjjjjjHAOO",
"OOO<jjjjjjjjjmHqOOOOOjjjjjjjjHAOOOojjjjjjjjjmH>OOOO=jjjjjjjjHAOO",
"OO<jjjjjjjjjjmHqOOOOOjjjjjjjjHAOOojjjjjjjjjjmH>OOOO=jjjjjjjjHAOO",
"O+=ujjjjjjjjjmHqOOOOOjjjjjjjjHAOO<jjjjjjjjjjmH>OOOO=jjjjjjjjHAOO",
"OOO$ujjjjjjjjmHqOOOOOjjjjjjjjHAOOO<jjjjjjjjjmH>OOOO=jjjjjjjjHAOO",
"OO-+*jjjjjjjjmHqOOOOOjjjjjjjjHAOO@#,jdjjjjjjmH>OOOO=jjjjjjjjHAOO",
"OojyBXjjjjjjjmHqOOOOOjjjjjjjjHAOosDS kjjjjjjmH>OOOO=jjjjjjjjHAOO",
" ujjBbjjjjjjjmHqOOOOOjjjjjjjjHA5jjkVvjjjjjjjmH>OOOO=jjjjjjjjHAOO",
"+ujvHejjjjjjjmHqOOOOOjjjjjjjjHA+ujnGXjjjjjjjmH>OOOO=jjjjjjjjHAOO",
"O+4#25jjjjjjjmHqOOOOOjjjjjjjjHAO#*-- jjjjjjjmH>OOOO=jjjjjjjjHAOO",
"OOOOO5jjjjjjjmHqOOOOOjjjjjjjjHAOOOOO5jjjjjjjmH>OOOO=jjjjjjjjHAOO",
"OOOOO5jjjjjjjmHqOOOOOjjjjjjjjHAOOOOO5jjjjjjjmH>OOOO=jjjjjjjjHAOO",
"OOOOO5jjjjjjjmHqOOOOOjjjjjjjjHAOOOOO5jjjjjjjmH>OOOO=jjjjjjjjHAOO",
"OOOOO5jjjjjjjmHqOOOOOjjjjjjjjHAOOOOO5jjjjjjjmH>OOOO=jjjjjjjjHAOO",
"OOOOO5jjjjjjjmHqOOOOOjjjjjjjjHAOOOOO5jjjjjjjmH>OOOO=jjjjjjjjHAOO",
"OOOOO5jjjjjjjmHqOOOOOjjjjjjjjHAOOOOO5jjjjjjjmH>OOOO=jjjjjjjjHAOO"
};
