/* XPM */
static char *_444e3d65489487abd9ecbe83fd4745bOAbj27GSjCUUOCBP[] = {
/* columns rows colors chars-per-pixel */
"64 64 66 1 ",
"  c #F47E60",
". c #F47C66",
"X c #F37869",
"o c #F06D7C",
"O c #F17373",
"+ c #FD9F27",
"@ c #FC9930",
"# c #FC9C31",
"$ c #FA943A",
"% c #FB973A",
"& c #FB993C",
"* c #F98E43",
"= c #F7894D",
"- c #FA9546",
"; c #F68356",
": c #F78A54",
"> c #F78B55",
", c #F78F5A",
"< c #F89250",
"1 c #F58164",
"2 c #F68C65",
"3 c #F5896F",
"4 c #F48579",
"5 c #EC5D99",
"6 c #EF6886",
"7 c #F06C81",
"8 c #F06E82",
"9 c #F17480",
"0 c #F07287",
"q c #F17986",
"w c #F27F8E",
"e c #ED6395",
"r c #EE6992",
"t c #EF6E93",
"y c #EC619D",
"u c #F17C98",
"i c #EA57A2",
"p c #E74CB5",
"a c #E74CB6",
"s c #E84FB4",
"d c #E647BE",
"f c #E74BBA",
"g c #E74FBB",
"h c #E649BF",
"j c #E851B5",
"k c #E958B8",
"l c #E95BBF",
"z c #ED6AA0",
"x c #EF79A2",
"c c #EE75AD",
"v c #EA60B0",
"b c #EC6CB0",
"n c #ED72B7",
"m c #E74EC0",
"M c #E750C1",
"N c #E855C3",
"B c #E857C4",
"V c #E859C4",
"C c #E95EC6",
"Z c #EA60C0",
"A c #E960C7",
"S c #EC6FC1",
"D c #EA65C9",
"F c #EB6ACA",
"G c #EB6CCB",
"H c #F38284",
/* pixels */
"+++++OdddddddVG4+++++ddddddddGx+++++OdddddddVG<++++=ddddddddGx++",
"+++++OdddddddVG4+++++ddddddddGx+++++OdddddddVG<++++=ddddddddGx++",
"+++++OdddddddVG4+++++ddddddddGx+++++OdddddddVG<++++=ddddddddGx++",
"+++++OdddddddVG4+++++ddddddddGx+++++OdddddddVG<++++=ddddddddGx++",
"+++++OdddddddVG4+++++ddddddddGx+++++OdddddddVG<++++=ddddddddGx++",
"+++++OdddddddVG4+++++ddddddddGx+++++OdddddddVG<++++=ddddddddGx++",
"+++++OdddddddVG4;@3#+ddddddddGx+++++OdddddddVG<X%3+=ddddddddGx++",
"+++++OdddddddVGtdjFc#ddddddddGx+++++OdddddddVGedgFw=ddddddddGx++",
"+++++OdddddddVFfddVG,ddddddddGx+++++OdddddddVDdddAG1ddddddddGx++",
"+++++OdddddddBGqpyG2+ddddddddGx+++++OdddddddBG9d0G2=ddddddddGx++",
"+++++OddddddddCS>+&++ddddddddGx+++++OddddddddCS>+&+=ddddddddGx++",
"+++++OdddddddddCS-+++ddddddddGx+++++OdddddddddCS-++=ddddddddGx++",
"+++++OddddddddddCS-++ddddddddGx+++++OddddddddddCS-+=ddddddddGx++",
"+++++OddddddddddNG2++ddddddddGx+++++OddddddddddCG,+=ddddddddGx++",
"+++++OdddddddddNG2+++ddddddddGx+++++OdddddddddCG2++=ddddddddGx++",
"+++++OddddddddNG2++++ddddddddGx+++++OddddddddCG2+++=ddddddddGx++",
"+++++OdddddddhFx+++++ddddddddGx+++++OdddddddMGx++++=ddddddddGx++",
"+++++OddddddddmFw++++ddddddddGx+++++OddddddddNGw+++=ddddddddGx++",
"+++++OdddddddddmFw+++ddddddddGx+++++OdddddddddNGw++=ddddddddGx++",
"+++++OddddddddddMGH++ddddddddGx+++++OddddddddddBG3+=ddddddddGx++",
"+++++OdddddddddhDS-++ddddddddGx+++++OdddddddddhDc#+=ddddddddGx++",
"+++++OddddddddhDS-+++ddddddddGx+++++OddddddddhDc#++=ddddddddGx++",
"+++++OdddddddhDS-++++ddddddddGx+++++OdddddddhDc#+++=ddddddddGx++",
"+++++OdddddddVG4+++++ddddddddGx+++++OdddddddVG<++++=ddddddddGx++",
"+++++OdddddddVG4+++++ddddddddGx+++++OdddddddVG<++++=ddddddddGx++",
"+++++OdddddddVG4+++++pddddddhGu+++++OdddddddVG<++++*dddddddmGH++",
"+++++OdddddddVG4+++++*pddddhDc#+++++OdddddddVG<+++++ dddddmFw+++",
"+++++OdddddddVG4++++++*pddhDc#++++++OdddddddVG<++++++ dddmFw++++",
"+++++OdddddddVG4+++++++*ddDn#+++++++OdddddddVG<+++++++XdfFx+++++",
"+++++OdddddddVG4+++++++6ddNG2+++++++OdddddddVG<++++++@iddNG2++++",
"+++++OdddddddVG4++++++6ddddNG2++++++OdddddddVG<+++++@iddddNG2+++",
"+++++OdddddddVG4+++++6ddddddNG2+++++OdddddddVG<++++@iddddddNG2++",
"+++++OddddddhVG4+++++6dddddhNG2+++++OdddddddVG<++++@iddddddCG2++",
"+++++OdddddddVG4++++++6ddddNG2++++++OdddddddVG<+++++@iddddCG2+++",
"+++++OdddddddVG4+++++++6ddNG2+++++++OdddddddVG<++++++@iddCG2++++",
"+++++OdddddddVG4+++++++*ddDn#+++++++OdddddddVG<+++++++XdsFn#++++",
"+++++OdddddddVF4++++++*pddhDc#++++++OdddddddVG<++++++ dddmFc#+++",
"+++++OdddddddVG4+++++*addddhDc#+++++OdddddddVG<+++++ dddddmFc#++",
"+++++OdddddddVG4+++++addddddhFu+++++OdddddddVG<++++*dddddddmGu++",
"+++++OddddddhVG4+++++dddddddhGx+++++OdddddddVG<++++=ddddddddGx++",
"+++++OdddddddVG4+++++ddddddddFx+++++OdddddddVG<++++=ddddddddGx++",
"++++*pdddddddVG4+++++dddddddhGx++++*pdddddddVG<++++=ddddddddGx++",
"+++*pddddddddVF4+++++ddddddddGx+++*pddddddddVG<++++=ddddddddGx++",
"++*pdddddddddVG4+++++ddddddddFx++*pdddddddddVG<++++=ddddddddGx++",
"++odddddddddhVG4+++++dddddddhGx++5ddddddddddVG<++++=ddddddddGx++",
"+++6dddddddddVG4+++++ddddddddGx++@idddddddddVG<++++=ddddddddGx++",
"++++6ddddddddVG4+++++ddddddddFx+++@iddddddddVG<++++=ddddddddGx++",
"+++++5dddddddVF4+++++dddddddhGx++++@pdddddddVG<++++=ddddddddGx++",
"++++ ddddddddVG4+++++ddddddddFx++++6ddddddddVG<++++=ddddddddGx++",
"+++ dddddddddVG4+++++dddddddhGx+++6dddddddddVG<++++=ddddddddGx++",
"++ ddddddddddVG4+++++ddddddddFx++6ddddddddddVG<++++=ddddddddGx++",
"++*pdddddddddVG4+++++dddddddhGx++ ddddddddddVG<++++=ddddddddGx++",
"+++*phdddddddVG4+++++ddddddddFx+++ dddddddddVG<++++=ddddddddGx++",
"++-+:pdddddddVG4+++++dddddddhGx++%#.ddddddddVG<++++=ddddddddGx++",
"+6dyn7dddddddVG4+++++ddddddddGx+6abc7dddddddVG<++++=ddddddddGx++",
"XdddDVdddddddVG4+++++ddddddddFxOdddFvdddddddVG<++++=ddddddddGx++",
"@idkGrdddddddVG4+++++dddddddhGx@idCn6dddddddVG<++++=ddddddddGx++",
"+@X#,OdddddddVG4+++++ddddddddGx+#;--OhddddddVG<++++=ddddddddGx++",
"+++++OdddddddVG4+++++ddddddddFx+++++OdddddddVG<++++=ddddddddGx++",
"+++++OdddddddVG4+++++dddddddhGx+++++OdddddddVG<++++=ddddddddGx++",
"+++++OdddddddVG4+++++ddddddddFx+++++OdddddddVG<++++=ddddddddGx++",
"+++++OdddddddVG4+++++dddddddhGx+++++OdddddddVG<++++=ddddddddGx++",
"+++++OdddddddVG4+++++ddddddddFx+++++OdddddddVG<++++=ddddddddGx++",
"+++++OdddddddVG4+++++dddddddhFx+++++OdddddddVG<++++=ddddddddGx++"
};
