/* XPM */
static char *_5fd6e89968b43a1a5cbfa73136244e1fw6ZNE6kdnlx2ViQ[] = {
/* columns rows colors chars-per-pixel */
"64 64 65 1 ",
"  c #FD9F27",
". c #F89D33",
"X c #F99F34",
"o c #EF9A4C",
"O c #F49B40",
"+ c #F69F40",
"@ c #F29E4D",
"# c #EA9858",
"$ c #EE9E59",
"% c #DF9479",
"& c #DC937D",
"* c #E69664",
"= c #E99A60",
"- c #EA9B61",
"; c #EA9E66",
": c #E6996B",
"> c #E19471",
", c #E29775",
"< c #E79E72",
"1 c #E39E7F",
"2 c #D89189",
"3 c #DF9D8B",
"4 c #D38F96",
"5 c #D18F9B",
"6 c #D59498",
"7 c #D2909C",
"8 c #D7989D",
"9 c #DC9D98",
"0 c #CF8DA2",
"q c #CA8CAE",
"w c #CD90AF",
"e c #CE93AF",
"r c #D89DA4",
"t c #C98DB5",
"y c #C58ABB",
"u c #C68DBE",
"i c #CA93BF",
"p c #D49DB1",
"a c #D19DBE",
"s c #B785DF",
"d c #BA88DE",
"f c #BD8DDF",
"g c #B785E0",
"h c #B685E5",
"j c #BC8FE7",
"k c #B383EB",
"l c #B484EB",
"z c #B586EB",
"x c #B688EC",
"c c #B789EC",
"v c #B98CEC",
"b c #BA8EED",
"n c #BA8FED",
"m c #BE93E6",
"M c #BB91ED",
"N c #BC93ED",
"B c #BF97EE",
"V c #C188C7",
"C c #CD9DCA",
"Z c #C290D5",
"A c #C898D0",
"S c #C99CD7",
"D c #C59CE3",
"F c #C19AEF",
"G c #C29CEF",
/* pixels */
"     2kkkkkkkcG3     kkkkkkkkGG     2kkkkkkkvG$    #kkkkkkkkGa  ",
"     2kkkkkkkcG3     kkkkkkkkGG     2kkkkkkkMG$    #kkkkkkkkGa  ",
"     2kkkkkkkcG3     kkkkkkkkGG     2kkkkkkkvG$    #kkkkkkkkGa  ",
"     2kkkkkkkcG3     kkkkkkkkGG     2kkkkkkkMG$    #kkkkkkkkGa  ",
"     2kkkkkkkcG3     kkkkkkkkGG     2kkkkkkkvG$    #llkkkkkkGa  ",
"     2kkkkkkkcG3     kkkkkkkkGG     2kkkkkkkMG$    #kkkkkkkkGa  ",
"     2kkkkkkkcG3*.1X kkkkkkkkGG     2kkkkkkkMF$&.< #kkkkkkkkGa  ",
"     2kkkkkkkcGekdFCXkkkkkkkkGG     2kkkkkkkMGtkgGr#kkkkkkkkGa  ",
"     2kkkkkkkcGhkkMG1kkkkkkkkGG     2kkkkkkkMBlkkMG,kkkkkkkkGa  ",
"     2kkkkkkkcG8suFr kkkkkkkkGG     2kkkkkkkvG6luG<#kkkkkkkkGa  ",
"     2kkkkkkkkND- @  kkkkkkkkGG     2kkkkkkkkND: + #kkkkkkkkGa  ",
"     2kkkkkkkkkND@   kkkkkkkkGG     2kkkkkkkkkMD@  #kkkkkkkkGa  ",
"     2kkkkkkkkkkND@  kkkkkkkkGG     2kkkkkkkkkkMD@ #kkkkkkkkGa  ",
"     2kkkkkkkkkkvG9  kkkkkkkkGG     2kkkkkkkkkxvG; #kkkkkkkkGa  ",
"     2kkkkkkkkkvGr   kkkkkkkkGG     2kkkkkkkkkvG<  #kkkkkkkkGa  ",
"     2kkkkkkkkvGr    kkkkkkkkGG     2kkkkkkkkvG<   #kkkkkkkkGa  ",
"     2kkkkkkklFS     kkkkkkkkGG     2kkkkkkkhGC    #kkkkkkkkGa  ",
"     2kkkkkkkkxFr    kkkkkkkkGG     2kkkkkkkkvGr   #kkkkkkkkGa  ",
"     2kkkkkkkkkcFr   kkkkkkkkGG     2kkkkkkkkkvG8  #kkkkkkkkGa  ",
"     2kkkkkkkkkkxF9  kkkkkkkkGG     2kkkkkkkkklvG3 #kkkkkkkkGa  ",
"     2kkkkkkkkkkND@  kkkkkkkkGG     2kkkkkkklklBCX #llkkkkkkGa  ",
"     2kkkkkkkkkND@   kkkkkkkkGG     2kkkkkkkllBCX  #kkkkkkkkGa  ",
"     2kkkkkkkkND@    kkkkkkkkGG     2kkkkkkkxBCX   #kkkkkkkkGa  ",
"     2kkkkkkkcG3     kkkkkkkkGG     2kkkkkkkMG$    #kkkkkkkkGa  ",
"     2kkkkkkkcG3     kkkkkkkkGG     2kkkkkkkMG$    #kkkkkkkkGa  ",
"     2kkkkkkkcG3     skkkkkklGC     2kkkkkkkMG$    XskkkkkkcGp  ",
"     2kkkkkkkcG3     oskkkklBCX     2kkkkkkknG-     oskkkkcFCX  ",
"     2kkkkkkkcG3      oskklBCX      2kkkkkkknB$      oskkcFCX   ",
"     2kkkkkkkcG3       okkBDX       2kkkkkkkMG$       #khBSX    ",
"     2kkkkkkkcG3       0kkvGr       2kkkkkkkMB$      .VkkvG<    ",
"     2kkkkkkkcG3      0kkkkvGr      2kkkkkkknB$     .VkkkkvG<   ",
"     2kkkkkkkcG3     0kkkkkkvGr     2kkkkkkkMG$    .VkkkkkkvG<  ",
"     2kkkkkkkcG3     0kkkkkkvGr     2kkkkkkkvG$    .ykkkkkkvG<  ",
"     2kkkkkkkcG3      0kkkkvGr      2kkkkkkkMG$      dkkkkvG<   ",
"     2kkkkkkkcG3       0kkvGr       2kkkkkkkMG$      .dkkvG<    ",
"     2kkkkkkkcG3       okkBDX       2kkkkkkkvG$       okgNSX    ",
"     2kkkkkkkcG3      oskklBCX      2kkkkkkkMG$      ogkklFCX   ",
"     2kkkkkkkcG3     oskkkklBCX     2kkkkkkkMG$     ogkkkkcFCX  ",
"     2kkkkkkkcG3     skkkkkkkGC     2kkkkkkkvG$    OgkkkkkkcGp  ",
"     2kkkkkkkcG3     kkkkkkkkGG     2kkkkkkkMG$    #llkkkkkkGa  ",
"     2kkkkkkkcG3     kkkkkkkkGG     2kkkkkkkvG$    #kkkkkkkkGa  ",
"    .VkkkkkkkcG3     kkkkkkkkGG    oskkkkkkkMG$    #kkkkkkkkGa  ",
"   .VkkkkkkkkcG3     kkkkkkkkGG   oskkkkkkkkvG$    #kkkkkkkkGa  ",
"  .VkkkkkkkkkcG3     kkkkkkkkGG  oskkkkkkkkkMG$    #kkkkkkkkGa  ",
"  2kkkkkkkkkkcG3     kkkkkkkkGG  qkkkkkkkkkkMG$    #kkkkkkkkGa  ",
"   0kkkkkkkkkcG3     kkkkkkkkGG  .VkkkkkkkkkvG$    #kkkkkkkkGa  ",
"    0kkkkkkkkcG3     kkkkkkkkGG   .VkkkkkkkkMG$    #kkkkkkkkGa  ",
"     ykkkkkkkcG3     kkkkkkkkGG    .skkkkkkkMF$    #kkkkkkkkGa  ",
"    >kkkkkkkkcF3     kkkkkkkkGG    0kkkkkkkkMG$    #kkkkkkkkGa  ",
"   >kkkkkkkkkcG3     kkkkkkkkGG   0kkkkkkkkkMG$    #kkkkkkkkGa  ",
"  >kkkkkkkkkxcG3     kkkkkkkkGG  5kkkkkkkkkknG$    #kkkkkkkkGa  ",
"  oskkkkkkkkkcG3     kkkkkkkkGG  >kkkkkkkkkknG$    #kkkkkkkkGa  ",
"   oskkkkkkkkxF3     kkkkkkkkGG   >kkkkkkkkkMB$    #kkkkkkkkGa  ",
"  + =skkkkkkkxG3     kkkkkkkkGG  OX%kkkkkkkkMG$    #kkkkkkkkGa  ",
" >kiD5kkkkkkkcG3     kkkkkkkkGG 0gAC5kkkkkkkvG$    #kkkkkkkkGa  ",
"#kkkNmkkkkkkkcG3     kkkkkkkkGG2kkkFZkkkkkkkMG$    #kkkkkkkkGa  ",
" 5kjGwkkkkkkkcG3     kkkkkkkkGG.VkmD7kkkkkkkvG$    #kkkkkkkkGa  ",
"  >X;2kkkkkkkcG3     kkkkkkkkGG .*@@2kkkkkkkMG$    #kkkkkkkkGa  ",
"     2kkkkkkkcG3     kkkkkkkkGG     2kkkkkkkMG$    #kkkkkkkkGa  ",
"     2kkkkkkkcG3     kkkkkkkkGG     2kkkkkkkvG$    #kkkkkkkkGa  ",
"     2kkkkkkkcG3     kkkkkkkkGG     2kkkkkkkMG$    #kkkkkkkkGa  ",
"     2kkkkkkkcG3     kkkkkkkkGG     2kkkkkkkMG$    #kkkkkkkkGa  ",
"     2kkkkkkkcG3     kkkkkkkkGG     2kkkkkkkvG$    #kkkkkkkkGa  ",
"     2kkkkkkkcG3     kkkkkkkkGG     2kkkkkkkMG$    #kkkkkkkkGa  "
};
