/* XPM */
static char *ceil[] = {
/* columns rows colors chars-per-pixel */
"64 64 42 1 ",
"  c #2B2725",
". c #2D2926",
"X c #2E2B29",
"o c #312C27",
"O c #312D2B",
"+ c #35312E",
"@ c #38332F",
"# c #322F30",
"$ c #353332",
"% c #3A3533",
"& c #3D3935",
"* c #373738",
"= c #3A3738",
"- c #373939",
"; c #3C3B3B",
": c #403B37",
"> c #413D3C",
", c #43413E",
"< c #3E3E40",
"1 c #413F41",
"2 c #3F4243",
"3 c #434444",
"4 c #494645",
"5 c #474847",
"6 c #494847",
"7 c #434649",
"8 c #494649",
"9 c #454A4C",
"0 c #4A4B4D",
"q c #504C4F",
"w c #464C50",
"e c #4A4E51",
"r c #514F51",
"t c #4D5154",
"y c #4F5458",
"u c #515355",
"i c #52565A",
"p c #55595D",
"a c #5A5C5E",
"s c #565B61",
"d c #5A5D62",
"f c #5C6064",
/* pixels */
"999w;O0we00ttt:$299wtuyet+,&@*3729292@4,O3pw90t%O&<O8e9999iO@399",
"w9ww0.388834303@,,,46,,66,o+39722229uO$+o4ut990@0ii>@6ute9p%;y97",
"wwwwu@++@O@OOOO%$OOO+ooOo+&99977979p,O79<O>e008O4>:& @>4ipi@<t99",
"9w0e&O-;--*-;3$>222229927&+99997wwyuX279t;O:u0%O$$*-3;o@,0ro3t99",
"99e:O3ttwww9w0%>7779222929.;w93790p&+979ww1O:%-77773779*X&6o9099",
"9t>+9twww99007$&9777w99279@%0999tuu.9w9999w3O%977277990w7+o+e999",
"t>+0twww09w997#>590ttw99wt3X30rtta>+ww99999e=O077779wwtttyeo,599",
",@0w9wwwww9908%O&:,60ttetpuO%:>460O9w799999e3Ow89wtyttue546oOo@:",
"o6099w9ww9w905O--+ooo&::,t<#-#X#@&&y9999999w0O4e863,;&%@ooO$5<+#",
"oO,09ww99w99w4X327995-O.o@+2ww22&O>ietttt9t93O%&%OXX.X*3et$&ttw9",
"O0O:600www990&@2227uisfp0o<w2www93.80897344%O*-X--2399wtee+;eww9",
"Ou0.$O@>50tt0$;2229yida04+tw222w993OOOOXXO+$8ieO0pt9999995o<w99w",
"Ou0@773*OO&&%o395tpr4:@O+ote2www993+972733O0ttr.3t999999w2#ywwww",
"@u8O79wti8.$;*+06<@+%<290.3yw22229>$w9993<@9wweO,t999080w2#292y2",
"$e4O70weu@$0ie@o+O2tew929O:iw999ww$;w99773X0tww$&0099990w2$2y22y",
"&83O790i:O3tet> 7yytwww99%@utw97wwO;9w9999X0w99;+99999999--s22y2",
";00O70u8+-09997O>itwwww9w3O0itt095o5t999t0orpe72.2799998&OX1e909",
"Oq8Oewu&+90999w**pewwewwu0o>34tt9,@utttt6,o,tp97X397999@O01O4u4&",
";O4$ue3O<99999w3optwttyp0>XXoO@%++o4ie4&++-X+6ue;%,384+*wit;O@O$",
"0*o&ie%%te9990wao:4riia4%+7933-+7t<o4%X+2tde%.,,O+XXOO3099et$$uy",
"90$$i>O0ww9099u>O$.O%%:@&9999w%;twt;.&20twttpeX+3tt95X09999e8O3i",
"tir q+1e99999r4O3di1.*+.099998O3t799O4997799trX7t9tw0X399990r#&i",
">36@@*twww99e8+&uri>@aeO;w9993O7999w$$097799t,o379999O,99999u1O4",
"..XO 4twww900%$0e9e=@ue*O0w9e&Oeww995X999599e%$977729&*999770qOO",
"tssd8 8eww9w:O09770$+9t9.>u90%%ew9990.3992994o20799773@799990$*9",
"9iyys1 0e9e4O999778%@9wt&O0t0O>eww999&*99990<+e0992777O3790t&+73",
"79eyid1@403@3099779#-77te.,f4O00ett997O99995+@&&-<;,33=%&>>>o377",
"79eisieOOO$.O&39790$&999t;@,:o%*&;>,,3@479,@@,-++XXOOO#-*XO.>O>7",
"99etu4$&u$3e&X.&389&*0990uOO*2-*$#+O+@o%3@+-o&6utt9ee:$ewe0O90.*",
"e9704%&tu$%0y9<Xo@,;&w99w:Oww99999903; $o<997++<997teO1098e#,07O",
",qt4%>ewe3O0ww993$.O&w908O;ywwwwwt0>O$w4+0w279-X%4908O3997e@&999",
" 44@.r97w8 >we9w997;.,we&$0ew0wt0;O#7ii>o2e9222< +4t8.9999e$$w99",
"7.+3+;9798O*tw9ww22w9O>8+5tt800,%X1ewu8O;.>w73229-X<,$0999e=Oe99",
"u$;03.497w&O72wwwwww97+@-00003%O;999ti&$01.4t9922w3X.<7979r=$099",
"3O999-@3993.2wwww299990X@@$$%@&99777i8O89e=O0p972229@;7777w1O9ww",
"%*090eO&892X<tw9ww99993@2<;** o;390e0O;779y$@up7w999$-2379teOwt9",
"O0089u5O30u%%t9www2w99*;799999;XO%30>#7777wsX+uaw979&*233<1&O>3w",
"o@@%%->%*:3,+tt92w2w90O499997797;Oo%O178227is$@0y99t>X+X.X.$-.O:",
"93;;2-*-$$Oo.4tww9yw0%o+,9799779098=O73737tyys#%0tr,O+*279tidp&.",
",97929299997-O8tw992%&92O%4979798e3%O77739ttisiO-u<o*0wwewwyi0O;",
" 077729ww929w$%,=OO.#e797#.>we0i0>O-*$%%%%:%&1>3o:o-0979779eiO$i",
" ,9779w299ww03 @*<78X79787= %4aq%O;09.*$*$$$$$#X+X-r9997979u1Ois",
"&.07w22w9w00*$;Ow7eeO>7777w8O.>O$0979=%3777379wtuO,99979779iO9it",
"e 4022y2903%@93O999u;#0777wyt1 3iw9993.37777779wu+o+&3997701$sww",
"s$@yy22y03@$997 30wi8 8777w90iO3yw9990O17799777u8O;$..@;,90Xeiww",
"p0 rwwww>@#9999O>97weO=77977ep$>iw9999=$9777777w*Oew7;$ .+@&dttw",
"wi 4at2&O%ew9w9**e97e1.e9799rr-%0w0w978.777777t8O;w099ww3-.%u097",
"9t3+6%X#$o,tw998 0e9ir.3ee8t4&O.@,93733O;3579w0&O8w999090i0.>w33",
"79pOX$2tt-.*089tO87er>..&8i8@$9w$.-$###$OO&3t4%O.%0w979979t2X,92",
"798O2tw999<.%0w0O>7e=Oe8.O>@*77wy;o-<2223-..%@+99O+69799922t<o,9",
"7r@1t39999e< %0t;$r&O8w9e; ;7799t-$222273273 *wtie$o497999220&+5",
"&&+ut99999ww3.@08O:#999eirO87777e%<222222233.39ww0e-.39729w99e-+",
"3*O+q09ww29w09OOqOO799er1%.377770+&33222727;X3w999ww<X>099996,+.",
"uO0$@099www99ww=OO79er>%O1;O80770X-22377www**09997w2w7O&<-%@@X-7",
">O00.:w92wwww90w>O0e4&O$799O&eti8O5t0wispq4O307977ww998.+$-;.799",
"=%8w3 402w999w908O8&O#9t9770.3us3X570ur4:OO.&999992w99$;9922+997",
"o399t;.4t2999w9weOOO3itwew83@@30q+uu4;@.X*9;O&;7999993O9977;+999",
"O9979t&.#<29099e3.:0upr3>*OO;..O%%4%. $3et91.X..%>999*&w279@-999",
"$95798$;2-.X&2t,O<# O:%OO*9u&$93- +$39099w31O<<<O.O>6O4022wo3997",
"399903+32222+oo$wee7= %0ete&O7999@9977999973O77277-Oo$iuw79X9999",
"99990$-977779w@3977ww<.=wi:O99997+2777999973+09999tu3o0aue0Oe99e",
"5799,O3377272w@<7<<2781.>>O379997@;5799990t9+,,380u>$-o,dpuOw9w6",
"7995*$79297270+<98weete1.O<779999@-5799790t%X +.X@%@733 >dpO99t,",
"-%@@+72292379uO<779ewwee*Oe9989;++.<97799t%+tX4t3; 32390.:a@990@"
};
