/* XPM */
static char *north[] = {
/* columns rows colors chars-per-pixel */
"64 64 27 1 ",
"  c #2F2D2A",
". c #312F2C",
"X c #33312E",
"o c #363533",
"O c #383735",
"+ c #393837",
"@ c #393738",
"# c #373838",
"$ c #3C3C3C",
"% c #403F3E",
"& c #3E403F",
"* c #40403F",
"= c #3E3F40",
"- c #403F40",
"; c #3F4142",
": c #424445",
"> c #444847",
", c #434748",
"< c #484748",
"1 c #45494C",
"2 c #484B4D",
"3 c #474C50",
"4 c #494D51",
"5 c #4D5153",
"6 c #505254",
"7 c #515659",
"8 c #55595C",
/* pixels */
",,>>,,,,2<:%222<44<4<422,2>>>>:%<44311,:*+oX<21,2222442221;31;&&",
">>>::,>,,,:%<221<<11<1<<,,:::::+243311>:*++X<22211234441311>;>*&",
";::;:::>,>::1211111,<<,::-:%***+21411,>:*$+X>2222223422211;1>**&",
">::::::>>:%*1<,<,<:-:---%%%%$$+O25211,:;:$+o:242332241111131>**$",
";;;:;::-$$+$::%%%@$$@@@@@o#ooooo55221,,,;&&#>23321>>2>1>,,,>*&&$",
"oooo@oo@ooo@@@@oOOOo##@@+@#ooooo*$$$$@@@oooX###$###&ooo#++o#oooX",
"=;;;==@-12132324442-4445455343122221123,#;;;>>;32224&223111,,>>;",
">;,;;=@$,,,11222432=444442131121,,441111&;,>>1133324&23244431,,,",
",,,,:;$$,,,,,113333$344433311<,>>>>14112$:>,13333444$33342342111",
",,;;::=$>,,,,,11113$3444321<,,::>:,,3442$>,113133444$12222243211",
";,,;;:=@:::,,,,,111$344421,,,:::-:>,2122$,,113344444$21212222311",
",;;;:;-@=:::>;>,,,1%44431,,,::-:::::,,1<$,,111123433$2121,113322",
";;;;;:=@=:-:;,,:::,$331112,>::--=-:-::>:$,>>>>,13244%1111<111313",
">;;;;=;@==-::,,,>,1%3111,,::--%%===:::::$>>>>>,,2,12%3<11<111311",
";;;;=:=o====:;;,>:>:1111,>:;==$===-=::-%$>::;>>>>>,2%43111212231",
"####o#@..Xo####$@$$+:$$$$++@#oooOo@@@o@oo+@@@$#@##o+O%%%$@@@@oo#",
";,;;;;;;;;3;;;#X;;;;;;;;@ooo@$$$=;;;;;&&=$#ooooo&854421,2,>>+2,,",
",,,>:,,,;;;;;;&&;;7;3;;;=$$o;;=:;;;,;>;;;==$$$$@$555422221>>+521",
"31111;,37;;;;;;#733733;;==$@,:::;;;,,,:&;;==$$$$$2222,,>,::*$544",
"33334313;7;;;;;#;33;;3;7>>:@111113,,,,>:;;;;;;=-$>>>,<2>>:**$544",
"444443137;;;&&&&;7;3333;,,>$64443,,1,,>>;;:;:;>,%:>>,,>:**&$%622",
"::>231,;;;;;oX &;;;;;;;;==$+2<2<,>;><>2<22<2<226%%$$$$$$*+OX*5<>",
"$,2o#$==;;;;&&;;;;;;;;;;$:>2<,122,,2 XX..XXXoo#@o+++$@$$oXXooXOO",
",25@;,,1;7;;;;;;;333;3;;$>>,,2222122Xoo##$$$====*:>>::>>++$+&$&*",
",,4+;,111;31;3;57;7;;31,=,,,21<12,22o$@$==;;,=;:,;;1,,,,%+$$$$;>",
">,2@=:,1113;3;5;;73331;,@:,11,<1,,,>+%=:;,113;;:,,1;,,1,%+$&$;;;",
">><o$:;,;3;3333137331;,3$:,1,,>>>>>:@;:,,1113,::;1;,,,,,%$**==;;",
",>2o==;:;;3;;3;1;;3;;133$:>,>>:::>::=>,11133,,,,1;>,,,,,*%**:;;>",
"11<o$$::3;;;3;1133;7333;$%::::%:::::;,11311111,;;1,,,212:&;;:;:,",
"112o$:;,;3333311;37;;37;@$%%%$:*-::%;,11111311,>1;;,,245:$>>:>>,",
"113o@;::;;3;;31377;33733X+$+$$$$=-:$,1131111,,>>>>1,2264>$,,;>;1",
",14o@$$;;1;1;1;1;;;3;;;;.Xooooo@@@$@<1,,>;;;>;:;;>,,<5262+$;;;>,",
"XX&#X &&XXX&&&&&&&&&&&&&=======-@$$=:-:::*&&+&$$$&&&;&&&::>:-;=$",
";&&;&&&;&&&&;;;3;;;;;;;1,;13111<@,:,1344222>&>>>;,1;,1211,,11224",
";;;;;&;;&;;&;;;3;;;3;;;3331:1;,<@>,,,1222>2:$>>>>>>1,22,11,21,21",
";;;;;;;;;;;;;;;;;53;3;113331111<@>:>,,<,>2>:&:;:;;>122,>,,,,,>>>",
"7;;;;;;;;;;&&&;;;;33,111,3331-1<@*::>:>>,,,:;;;;>,,,,2>>::*:-:-%",
"7;;7;;;;;;;&&&&;;3;;,;>>;1;11224@$$--:::;&;&;1;;>;>>,>::%$+@+++o",
";;;;;&&&&.&&&&&&&&;&oooooo##oo@=XoooooXo&$$##o$#o#oo+$@+oooooo@+",
";;7;;;;X &&&;;;3;;;&$$&;;$=;====;*--$%%+23111;;;;;;&&242,22,,,,,",
";833;;7;&&&;;;;3;;;;;;;3,-,=;,-,:;;$=-=@,432;31;;1>&&331221,>11;",
"7;7;7;;#&&&;;3335;;&;;;;--,,,313>:;:;-:$:21213;33;1>&33311;>,,13",
";7;77;7#&;;333;;;3;&;;3;-34-33--1;:;-:-%:11,;33;;51;&;3311,1;1;3",
";;;;;;;#;;;;;;;33;3&13;334433133,,;>::,-:2313;113;1;&115311133;1",
"3;;3;37#&&;;;;3;;3&&;1;3331313311,,,,,1--2111,;1;33;&&&>;1;1333;",
";3;;;;;#&;;;;;;;;;&&1;;331111111111,,11--3311,1;3;;1&&&&;>;>;;3;",
";;3;;3;;;;;;3;;;;;;&1;13111113111111111,$11,,;,,&13;&&;&>;&;>>;;",
";;;;;;;;;;33;;;;;35&;;331212<3233333<111:3111,1,3&13&&&&&&&&&;;;",
";&oo&&&& X;&&&&X+$$+$$$$$++%@$$$&&&&&&&&&&o&&ooo&&& & .& X& o& o",
"333;33&;;;;;;;;&865554222,,+$$$-&;&>;;;3&;&3;337&&&&>2;33;14&775",
"333;3;;357377;;;522222>><,,%==::;>>>333;;;3>;3;5&&&&;>>>>>>3&433",
";3333;3;;;;3;;;&5,<<>>>>,>>$==::;>133;333;;3;>12&&&&>&>>;33>*>33",
"33;;;;;;;;;;;;;;<>>>>>:>:::+$%-:>;33;;;;;3;3;333&&&&&&&&>>>>>>52",
";;&&;;&&;;;;;;;;::::&&*&$$+o@$==;3>>&&;;;;;;3;14&.&&&&&&>>>2>>11",
"o#o#&& X&X&XX &&$$$+O++o.....ooo&&&&&&&&&&&&;;;;.& & &.&+*&*&&&o",
";3;;;;;;;;;;;&&&$$++ooXO62121211&&&&&&&&&&&&;;;;****&&&3*XX&&&>>",
"37;;;3;3;;3;33;;;&&&&++o55333333;;;&&;33;3333;332221,1>2*+&::,11",
";;3;33337;;33;;3>;&&&+oO3333335333;&;3332333333333211>;1*+&*>>12",
"333;3333;;7;3;3;;&&&++oO33533333333&;33;3233333332221;;3*O&:;>22",
"3;;;33;37;;7333;;&&&&++o5;;31>>1333&;335334433333311,>11>$&:1111",
"33;;333333;3;33;;;;;&&.&;;3311>1375>;533333413112322,,33:#;;>111",
";3;;333333333;3;;;;;&&& 33;31111;;5;353;321;;11,1,11,,35*$;>;111",
"7;;73333333;3;;;;;&&&&&&333311;1333&;33331;11;>>,,13;114:+;;1;>>",
";;;;333333333337;;&&&&&&>3>>11133;3&&;3;;3;;1;>,,,,,>252:+;;;>>>"
};
