/* XPM */
static char *south[] = {
/* columns rows colors chars-per-pixel */
"64 64 39 1 ",
"  c #29241E",
". c #2C2622",
"X c #2D2925",
"o c #2E2C2A",
"O c #322C26",
"+ c #382D27",
"@ c #332E2A",
"# c #392F2A",
"$ c #35312E",
"% c #3B322D",
"& c #353432",
"* c #3B3532",
"= c #373837",
"- c #3B3836",
"; c #373838",
": c #3C3C3C",
"> c #41362F",
", c #44382F",
"< c #413731",
"1 c #443932",
"2 c #493C34",
"3 c #423E3B",
"4 c #483E38",
"5 c #3E403F",
"6 c #41403F",
"7 c #3D3F40",
"8 c #413F40",
"9 c #3E4243",
"0 c #414445",
"q c #484747",
"w c #434749",
"e c #48474A",
"r c #45494C",
"t c #484B4D",
"y c #464C50",
"u c #494D51",
"i c #4C5054",
"p c #505256",
"a c #50555A",
/* pixels */
"<<%-8wwwrrrewrr39ewrrretrrewwwwq-wwrrwtwr0wwwwww<eyyyyuy9yww5$%%",
"<*<%7wwwwrrrrrr112244wwrrrwwwwww-wwwqrwwwr0000ww%eyyuyuryry95$$%",
"<*%$00w0rerwery312<2110wwwww0w0w*wwwqwq009900w0w&ruuuuutrw9w5$#$",
"*%#*800rwrrrrrr31121<>*00000w006%9www000w9000www$tuyuyuyyryww-@#",
"###;0000wrwrrrw1<<<1<<%:60999w95@%-w9009009w0000$tittyryrytrw9@$",
"%$@798999w9ww00-><<21<<#55999955@$%-0w9w90090000$tttyrrtyyrrw5@#",
"*#@;::::5::73*<><<<11<##O@*==*$$$$$%$-907997978*%tewww00999w95$$",
"##oX@&&&&&&$$&*%-<*<<<**$$$@$o@@$%%%%#@@@oo@@$$$%%,,%%%%$=$$*$%$",
"0;$&*uryyyrrrrr9*%*>*3yrrrrrr8:$+%%%###*7799700755,55%riurtttrtr",
"0-#X&uryrryrrrr0*%%*>0ryyrrr0-$#%%*%<#*7799rw00rwww9q*rtrrttrtrr",
"7&@X$uyrrrrrww9:%*%*#0errrr8*$%*>*,%%%:999ryuuuurtrtr-rrrrrrryr9",
"7$@X$uyryrw90w9-%%*%>qtrrw8*%<*-*%,<<*0wyyyyuuuuututq56rrqww99ry",
":$XX&yrrrr0:-33:*%%%%erww03<<<-<<<><>%0wryuuuuuuuyytt6wrrr9yy9y9",
"8&X.oyrrww0***<#%%%%%tuu01<<<<<<<>,>%%wrryuuuryuttytt6wrrry99r9r",
"7&..oyy9997$<<*>%%>>>tuuq22<1<<<<1>>+#wwryyryyyrtttyt6wyww999999",
"oX..o&&$$@######%%%%%><<1<221<<<<<%@O@&&&&-&**-&=*&-5&&&$$&$&$$5",
"yrywwryrt;iyttwwrrtqqq5,22>>>>*380rrrrrrre*&=:779990wrrrrr80rrru",
"yyuryryyt-iw0:1<16126,112<>>*39wruuuuyyyrr&;:7709wwryrurur80ttru",
"yuuuyyryr%r0,12,62222111<><-8wwryuyyryr9wr&;:77000wrrttyyy00wrer",
"yyyurrrr0%t4,122262,226,<<$78rryuyyyyrrwer$=777700wwtyuuuu8:w0er",
"wryyrwr8-%t3,,,62222122>##*80rryyyyyyrrrwr&;7900w00rtyuyuu0:0000",
"0wwu88:<>%r3,,,,,,>262,><#-8w9rryyrrrrrwwr&:7800ww0rrtuuut0:5000",
"0088<%%%%%w-%<,,,>>>>2,>*#*89r0rwerrerrerr&:8000wwwrrwtyuu0*:-*:",
"***$*<<<%%-*,*%%>>>#>2>>$#@&=::7::;;:;;::7@#&&&&*--:555536- XXXO",
"@$#**<<%%%%&%%+=%%##*><>##&=7;o$&&&&$ooo&&;7;;@@@o$&&&;;&$&$&&&&",
"$###%*<%%**--5$5:97&#*#<*:9999&&97777979999997;#@&7999999:59:99&",
"77:;%*%5999999*www997;79y9rr97$=999999999y99999&$79999999999999;",
"7700050ww9990w=09999999ryyy9w7$=999999y99yyy9y9&:09999999wrw099:",
"099r9rw99w9rwr-uuyrrrrwr9ywr99*=990099yywrr9rrw@70009rwrr9wwww07",
"9r9r9rwwwwwwrw5tyyyrrrrw9yyw9r=;9090y9y9rwrr9rw#7090wwrrrwweww00",
"rrrryrwwrwww9u5tyyrryyreyryyyr7:w000wwrreerrr9w#890wweurrreeewe0",
":::79w00wwqwtt6tw00wrweww07077:70000w00w00000w0*80weeterww000008",
"778@..oo&$;7;;;;=:;=. Xooooo$o$$@&&$&:;;5&&$XX@##OOO@*=5&=5=;5;5",
"uuu@X.&:77999999999: .;;::99::::7:9::urry9555O$##$OO@0wrwyryrurr",
"yyu+X.&:7799999y9999.&559999999999rr9iyy9yr95OO##O#5@9rwyywyyyry",
"yrr++O$:779999y99i95o599999999909ryw:ytyyrr95X@$#O55$www959w99y9",
"rrr+OX$:77799r99i9i9;999999yw0500rte:yytrr9955$5$56w$55-%%%*9wwr",
"rrw#@@;77799y9yy9iu9999999i9rrrwryte:uyyrr9r9959w5ww*%%%%,>+**5w",
"300@@=799999rrrrrry999i99999errryyue:tyyrrrr99999rrr*%$%,,,>%%%*",
"<:7+o;799999w8rreer09999ii9iwttrttte:rrwtrrrr9996955*#%%*,,>,>%,",
"*$$$@o$&$;=&;&&&&@#%@$&&&$&&&&&=&&$$$@@&5@$&&&@$o$#&**>%,,,22,,,",
"<0w0w997:uyrrrrrw;*0wrw9-:799000w999009rt$9999999009-%<>,,66222,",
">*800007;yyrryrr0*#3www9;70w00wwwwr00w9rt&y99rr9rwwr0><>11q622,,",
"#*#7997==yrrr777%***9w9w:79w0wwwwww:5wrrt&yyrr9rr9ww0<<<,,q04<,,",
"*$$$797;&yrwr07****$9w90-:999w9wwwwwww9yt*rwwww999rww<<1220wewww",
"8*$#=77&&rwww0:700*%-909$:99w9wrwrwrtwryt*uwww99yrr9w*<2423rrrrr",
"0077:;;#&yrww09000:*%-99o;599999wwrwrywwr5w9ww99rrr9w<2,220rrrrr",
"07777&XX=yrwww00000;#$:-X$;;:599wwwrwwwuu5aiiyuyr9rr4,,>>>9w0w0e",
"$&oo;ooo&o;;oooo$$&@$@@@o&oooo&$o;$$$&$&$$%%%%&;@@%%,,%%$%$$$&=o",
"77999999999995o9999yyyuur9y9i999y99y9999:&OO%%-9yr326rrerrruyir&",
"9999999999y99&59rrrtrruy9a9i9999y9r9r9995:O$$%;9r01221werwwrrtw=",
"9y9ya9a999y99&999rrwrrrr99i9i99ayyrrrwr99:$O#$;9w0><2>-30wwqrrw-",
"y999i9a9ywrra5990wwwwwwra9a99999ryy99r995:&Oo.o9w6%>,,>>*0wwwrw5",
"y9i9i99a9y9w99;;0ww9wwww999aa99999y9y999955:7&&900*%,<>>>-00ww65",
"9y9y99a9y9rru*;&:0w99ww9a9a99999y99yw999999999;90:%%><,>>%:99955",
"99y999999ywti=;o$599w90w999999aayyyyy9r9999999;9-$O@#<2>>%%-55*:",
"&7&&;;;755;5;o.o$$$$@$$&&;;::;::777::7;:97&&&&;&X.OO%>,>>>OOO$$&",
"99.ooo&7&&55;555:5O$OOo&;&-&&&&&&&&o&&;;9977999999:#+%2,,<0www9w",
"9ao&77999999999909$;$%:59:::7777777;99999999999999wOO%,2<,0wr9yt",
"9ao77799999y9i9999@:5:9599977799797;99rry9yy99y99rw#O%,21,*wrrtr",
"y9799y999yy9ii99w9$9999957999999008:yrr99a99yrrryrr&O%,,11,*9wqr",
"9a;9999yy9yy999999$9999999999r9r0rr7yyyy9aay9rrw9rt&#>2,1,1<*50w",
"99;9y99yyya9a9a999&999999rww9r00rrr7yyyyi9yyyywwwwu*#>1,,,,<,,*6",
"99&999yy9y9a99a9rt:yy9y9rr9wr0rr0rr7yyy99i9i9yrw0rp-+,,%,*%,*%,,"
};
