/* XPM */
static char *west[] = {
/* columns rows colors chars-per-pixel */
"64 64 37 1 ",
"  c #2D2722",
". c #2E2925",
"X c #2E2C29",
"o c #322B26",
"O c #332E2A",
"+ c #382F29",
"@ c #35312D",
"# c #3B322D",
"$ c #363433",
"% c #3B3632",
"& c #373837",
"* c #3B3836",
"= c #373838",
"- c #3D3C3C",
"; c #41362F",
": c #45382F",
"> c #413631",
", c #443932",
"< c #493C34",
"1 c #413E3C",
"2 c #3F403F",
"3 c #4E4036",
"4 c #42413F",
"5 c #48403B",
"6 c #3E3F40",
"7 c #3F4142",
"8 c #424445",
"9 c #484544",
"0 c #454847",
"q c #434749",
"w c #454A4C",
"e c #484B4E",
"r c #464C50",
"t c #494D51",
"y c #4D5154",
"u c #4F5458",
"i c #515659",
/* pixels */
">>##$*%#@#>%%>;>,<3<<>##%#-878w$=67777-%o+oOwwweeetytterwww72##%",
">%%%67-*###%;>>><<<<<,,-887888w%-6777777-+Oowwweeeeetttewwww&@##",
"1688rwqq7%#%,>,<<<,<:>8888888ww%67ww8777666Oweewee40eeeerww7%@@#",
"888877w777@##,,,,<<<,,88w8w88ww%68888877666+qttee0,30eeewww72O+#",
"w888wwwww7%%%>,,,,,<>8w888qqqqw%700887q7777*qtrty8,3500wr7w02O+@",
"ww8wwrrrw8@-%,>>>,,1,wwwww888qw-8qwww7qw8q8*qrtte4,<,;40rwww&++@",
"tttewwwq77O=->>>>>,,,qwwrwttyty4ewweeeew0qq18ww88,:,:;;47777*O+#",
"%+@@@XO===$@%%%%>>>>,#+O@$@@$@#@@#@##@@@*=*&=%%%$%,,%%%%$%@@#@#+",
"@+.O@@Xttrwwwwq%##>>,>678q66%ooo+##+oo.Otuuyttttttr42werrwwwww02",
"-@oo...errwwwwq%%%%,78wwwq8-++++####+++Oetuytttttee42ewrrrrrrrw0",
"6$ooX.Xqwtwwqw7%###-qwwwwq6#$+%%>;:;#16%eeeeeeewree54wewrwwrrrw7",
"66*$o.Xqrwwwwq1+###1www8w71%>%>%#;>;1qq-00eeewweew024w0w0rww0rrr",
"6666=O.qwwwwqq7%###1ww8ww8>>>>>>>>,,1qw-q0q0000ew00$4rew0r7r0rrr",
"666666Xqwwq>%%>####9ytee8,,>>>>>>,,>8qe-80q88q8q4:4$0ee0r0r0r0r7",
"66666=X8qq6%%>>%###0iytew5,,>,>>,,1qwwr1787888-%##*#0ew0ww20r7rr",
"$@X+OXX$@++#+++;###%%#####;;;#;%;#++$%%$+$OXoOoO@#oo$222%22$2$O2",
"wwwqwereerrreee>qqeqeeeeett%88q8r77r70w77777-22$*----==$$$$X-www",
"rrrwrreerre611,>,,14qq99wwt%wwwwrrr7rww77q77777@20777776-=-%7wwt",
"rrrrrrtrww9><:<<5<<,,,>1wwe*eewwrrwwwwr7q777777$77eewwwqq88-20ww",
"wrrrwrwrw9>><<<<<<<<<<>1qqw-ttrrrrrwr77w7087722$wwweewwqwq88-8q0",
"qweewewwq->>><<<<<<<<<>-qq8-yyttwy7y7r7777w7077$0weeeewwwwq8*888",
"qqwqqq9q6>>>>><:<:<<<<>>7871utter7y7www7w77w707$7wwerwwwwqwq@--8",
"8886>%>>+>>>>>>>;;;;<<;#6q76yrtt777u7w7777w7077@eeweeweewwwe.o@#",
"@@@#>>>>%%>>>>##;;;;>>;+#%%-7q76722722722222-$@O288422248448oooo",
"68*>%>>##%>>#%6@%=%>>>6++@=66==6777&. .X2=272&=&===7=2--. .O$$$-",
"qq%#%%>#%#%=6666676666q>@*68qwqq7772$$227777777777777709O%=--677",
"ww%#>>>*-6787qqq8qqq78t##6qqwqq8y7u77727w7r7777ww7w7wwwe%-6-777q",
"qw>@#+%6888qqqqqqq8qqwt#6qqqqqqq777727777wrrr77w7w7w7qwe%6777777",
"ww*+>%7q88qqqqeerwwtwte$66qqqqq87w72777rqwwrqw70w7ww0wwt-777888w",
"ww-+%688qqqwqqetttttwrt#6qqqqq9qw70277y7www7wqq87ww7wwet-7q088w7",
"we-+6678qqqwwrettwwrwtt%66qqqqqq7ww2777uwwqq0708807retyy*8qqqq7r",
"qw1%666666677888qqq9qqe=6=66668622727277-22222-2400r9eee-898qq8w",
"++#$$====66-=====777X777$2O$X.XO22222777222$=$=&&==$&&&=$&=$$$@X",
"%#=q7qqq8888rrww77777777777722&%w70rettyrwq&0w7ww0wwewwwwwq0772@",
"%;$7qq7q8w68trww7777777777w722-$wwwr0rrreww$0w7w700wwrwwwwwq002@",
"%;#=66qq8867rrrwu77u77u7u777222&7ww00rrwww0$7ww770weeeww040222%#",
";>@@8q678768erww7rrr7rrr77u7222&7000000ww07@7000rwrtrew0%;;%###%",
">>##666q7w7wrrwru77rrru7u7i7r772w0780000000@ew0wwrrtee02;:;;%;%>",
">##=8888qq1qtrrrruur7uuu7ru7rw7%7222---7422@errrrwwerew4;,;;>>>>",
">++#--8q8980eeww7777u777ru77722@$$o.oo@@OOoOerwrwrrr002*;:;:;;>,",
"%$$#$$=@$$$=$$==7=2XX@$$$$&2$&&&$$$$2@2@22%$&$$$@@@O-1-1,,<<<,,<",
"qqqqqq6688w88w8w77tX-2770w7rrwwrerrwrr024et7r77788-Oeitte1<<<<<,",
"-8qqqq66q88888w8777$-77wrwwwwrrrrrwr7r72w00rwwww881@etew9<<<<<,,",
">%6878$6888888887u77=77w7w0w7rrrrrr7rrr20rwwww7788*+etew<<<<,;;;",
"@#$77q==8688-%%78w4o@27qwq7wwwwrrr7y7uu20rrw070088%+891<<<<:;>%#",
"+O+$77#=-86=+O%7808#@27070wqqqwwrry7u7770wwrr772*@#+1,<<<<:;1787",
"#X#$$6O$==@oOO=88w4@@-qwqq7qqqwwrrrr7u7700w0w772####;,<<<:;#1747",
"=$==X.  ..ooOO-7709o@207q7qqq7qqrwrr7iu7rrw0702###;;:<:::;+%---1",
"XXXXXX@@X@O@OXOO@$@O@@OOOOo.X@@@@$$&@@$@@@@#%%:#%>;:,;%###@@@@$@",
"rttrwrrttrttrrt6wwwrw72@OoO%777777772--2@o+##:::9e550eeeeeee4ytt",
"rrrrwtrwtrtrwwr6rwrrr0-#@++*7w7wr77w77772@o##;#%45<<50wewwwe-tyt",
"rrrqwwwwwwwrweq6ewwwww2%##o*rwwwwrww77772-O+###+81><:;1800w07trt",
"wwqqwqwqwwqwee76wwerrrw72%O-w0qqwww7r77722-%22%O41;:,;>;2808-eet",
"qq88qqqqqqwqqq68rrwwr7ww02$2eqw77wr77r772277772&18#;,:,;#489-www",
"6688q8qqqqq886%7rrwwwwrr772=q0qwwrw777w777777722--##::,;;#4-*888",
"66667887778666@9rwwwww770722yetwrtrrr777w7700w72$@+#;<:;;#@@@2-2",
"X=XXXX67$$=$XX.=22$$@$2&&&&=-222=--**$$$$$$$$$%@..o@;<,;#+o.O@$$",
"776677776q777w877777777X$$&$$$$&$$@*yyyerwwwr700q887%::;,eeewwwq",
"7u7777r7wwrw7wrwr7rr77y$=--72-77677=yyyeereerrrreeeq*:<:>eee0ewe",
"r777777rrrrrrrr7r7777y72-7272277777=yyreeererrrrrre0%:<<,0eeeewe",
"7u777r777ru7rrr77rrrqww$277777770q8-yyeewwwweewwwww7#,<<<<,80q00",
"77=77rrrurrur7r77777770$7777qqww8qe-yewwwww07700www-;,<:,,,;%>>1",
"$6X7r77r7r7iu7777w77w7r=777r7wqqqwy2wqwww0w77w78088#;<,>>,,,,,>;",
"OXX=7777r7u77y7y7rrrrtt7rrr7qqqqqey700007077272228*#:,,>,>>>;>,>"
};
